<?xml version="1.0" standalone="no"?>
<!DOCTYPE svg PUBLIC "-//W3C//DTD SVG 20010904//EN"
 "http://www.w3.org/TR/2001/REC-SVG-20010904/DTD/svg10.dtd">
<svg version="1.0" xmlns="http://www.w3.org/2000/svg"
 width="264.000000pt" height="264.000000pt" viewBox="0 0 264.000000 264.000000"
 preserveAspectRatio="xMidYMid meet">
<metadata>
Created by potrace 1.11, written by Peter Selinger 2001-2013
</metadata>
<g transform="translate(0.000000,264.000000) scale(0.100000,-0.100000)"
fill="#000000" stroke="none">
<path d="M1255 2058 c-38 -33 -93 -132 -115 -205 -7 -24 -15 -43 -17 -43 -2 0
-25 11 -51 24 -121 60 -231 76 -280 39 -61 -45 -61 -130 3 -277 19 -44 33 -80
32 -81 -1 -1 -31 -12 -67 -25 -194 -68 -259 -166 -174 -260 37 -40 122 -87
202 -111 24 -7 41 -17 38 -23 -102 -221 -104 -323 -8 -363 47 -20 128 -5 231
43 41 19 75 34 76 34 1 0 8 -19 15 -42 22 -74 77 -173 115 -206 90 -80 189
-11 255 178 13 36 24 66 25 68 1 1 35 -13 76 -32 98 -45 178 -61 224 -46 40
13 71 48 80 90 8 37 -17 137 -56 219 -16 35 -28 65 -27 66 2 1 32 12 68 24 86
31 141 63 179 106 79 90 10 189 -179 255 -36 13 -66 24 -68 25 -1 1 11 31 28
66 16 35 37 94 46 131 15 59 15 72 3 104 -8 20 -26 46 -41 57 -50 37 -159 21
-281 -40 -27 -13 -50 -23 -51 -21 -2 2 -13 32 -26 68 -66 189 -165 258 -255
178z m140 -89 c38 -34 53 -58 84 -137 l20 -49 -85 -58 -85 -58 -44 32 c-24 17
-62 43 -84 58 l-40 26 20 51 c27 68 54 110 90 141 42 34 80 32 124 -6z m-360
-173 c37 -13 69 -26 72 -29 4 -4 -25 -198 -30 -204 -3 -2 -185 -33 -196 -33
-17 0 -53 107 -58 173 -5 61 -3 70 17 92 31 34 105 34 195 1z m784 0 c23 -25
31 -87 16 -138 -16 -58 -48 -128 -59 -128 -6 0 -47 7 -91 15 -44 8 -85 14 -91
15 -10 0 -50 197 -42 205 2 3 33 16 69 29 88 34 167 35 198 2z m-565 -123 l46
-33 -39 -35 c-34 -31 -45 -35 -91 -35 l-52 0 7 43 c4 23 11 61 17 85 l10 42
28 -17 c16 -10 49 -33 74 -50z m280 -55 l7 -48 -52 0 c-45 0 -57 4 -90 35
l-38 34 32 24 c18 13 50 36 72 51 l40 26 11 -37 c6 -21 14 -59 18 -85z m-173
-28 l24 -19 -55 0 -55 0 24 19 c13 11 27 20 31 20 4 0 18 -9 31 -20z m130
-117 l69 -66 0 -97 0 -97 -69 -66 -69 -67 -93 0 -92 0 -69 68 -68 69 0 93 0
93 68 69 69 68 92 0 93 0 69 -67z m-328 42 c-12 -9 -29 -26 -38 -38 -15 -21
-15 -21 -15 16 0 36 1 37 37 37 37 0 37 0 16 -15z m387 -17 l0 -32 -32 30
c-18 16 -35 30 -37 32 -2 1 12 2 32 2 35 0 37 -2 37 -32z m-480 -31 c-4 -43
-12 -62 -38 -92 -18 -20 -35 -36 -36 -34 -15 17 -95 143 -93 146 5 4 129 31
152 32 18 1 20 -4 15 -52z m611 38 c40 -9 74 -17 76 -19 3 -3 -76 -125 -93
-145 -1 -2 -18 14 -36 34 -26 30 -34 49 -38 92 -6 61 -11 59 91 38z m268 -95
c119 -84 83 -179 -95 -249 l-51 -20 -58 85 -58 85 32 44 c17 24 43 62 57 83
l26 40 59 -23 c32 -13 72 -33 88 -45z m-1031 -19 c28 -43 52 -81 52 -84 0 -3
-25 -41 -56 -84 -37 -52 -62 -77 -73 -75 -43 9 -142 66 -170 97 -46 52 -42 88
13 141 40 38 129 83 166 83 8 0 39 -35 68 -78z m150 -108 l-3 -28 -19 28 c-18
26 -18 28 0 55 l19 27 3 -27 c2 -16 2 -40 0 -55z m562 22 c0 -6 -9 -20 -20
-30 -20 -18 -20 -17 -20 36 l1 54 19 -24 c11 -13 20 -29 20 -36z m-597 -62
c25 -28 33 -48 37 -90 l5 -54 -49 7 c-28 3 -67 12 -88 18 l-38 11 48 72 c26
40 48 73 50 73 1 0 17 -16 35 -37z m680 -36 l48 -72 -39 -11 c-21 -6 -60 -15
-88 -18 l-49 -7 5 54 c4 40 12 63 35 90 17 19 32 36 35 36 3 1 26 -32 53 -72z
m-534 -114 c2 -2 -12 -3 -32 -3 -35 0 -37 2 -37 32 l0 32 32 -30 c18 -16 35
-30 37 -31z m371 27 c0 -27 -3 -30 -32 -30 l-32 0 29 30 c16 17 30 30 32 30 2
0 3 -13 3 -30z m-566 -46 c50 -9 92 -17 93 -18 2 -1 33 -184 33 -195 0 -17
-107 -53 -173 -58 -62 -5 -70 -4 -93 18 -24 22 -26 29 -21 94 5 70 41 175 59
175 6 0 51 -7 102 -16z m824 -36 c44 -112 47 -176 10 -215 -21 -23 -28 -25
-93 -20 -57 4 -154 33 -173 52 -2 2 4 48 14 103 l17 99 81 15 c127 24 121 25
144 -34z m-545 -24 c21 -20 37 -37 35 -38 -2 -2 -34 -24 -73 -50 l-70 -46 -11
37 c-6 21 -14 59 -18 86 l-7 47 53 0 c47 -1 58 -5 91 -36z m98 16 c-13 -11
-27 -20 -31 -20 -4 0 -18 9 -31 20 l-24 19 55 0 55 0 -24 -19z m179 8 c-1 -22
-27 -148 -31 -153 -4 -3 -120 68 -147 91 -2 1 14 18 35 38 33 31 44 35 91 36
35 0 52 -4 52 -12z m-144 -131 c32 -24 69 -49 81 -55 21 -12 21 -14 9 -51 -39
-110 -101 -181 -158 -181 -44 0 -107 68 -140 150 l-25 64 81 58 c44 32 83 58
86 58 4 0 33 -20 66 -43z"/>
<path d="M1295 1340 l-29 -30 32 -33 32 -32 32 32 32 33 -29 30 c-16 16 -32
30 -35 30 -3 0 -19 -14 -35 -30z"/>
</g>
</svg>
