<?xml version="1.0" standalone="no"?>
<!DOCTYPE svg PUBLIC "-//W3C//DTD SVG 20010904//EN"
 "http://www.w3.org/TR/2001/REC-SVG-20010904/DTD/svg10.dtd">
<svg version="1.0" xmlns="http://www.w3.org/2000/svg"
 width="1024.000000pt" height="1024.000000pt" viewBox="0 0 1024.000000 1024.000000"
 preserveAspectRatio="xMidYMid meet">
<metadata>
Created by potrace 1.11, written by Peter Selinger 2001-2013
</metadata>
<g transform="translate(0.000000,1024.000000) scale(0.100000,-0.100000)"
fill="#000000" stroke="none">
<path d="M4999 8241 c-303 -97 -568 -585 -739 -1362 -16 -72 -31 -133 -34
-136 -2 -3 -53 11 -113 31 -387 127 -740 196 -1018 198 -275 2 -452 -50 -568
-167 -180 -180 -145 -477 99 -838 143 -211 359 -452 594 -662 l122 -109 -84
-75 c-133 -119 -367 -357 -462 -471 -278 -333 -416 -645 -377 -855 32 -171
158 -293 356 -344 297 -77 767 -21 1308 156 76 24 141 42 144 40 2 -3 17 -64
33 -136 133 -602 320 -1030 541 -1235 210 -194 428 -194 638 0 224 208 405
622 541 1237 16 71 31 131 33 134 3 2 61 -13 129 -35 394 -129 728 -192 1008
-193 151 -1 179 2 295 28 216 48 356 186 380 374 37 298 -263 772 -791 1250
l-135 123 83 75 c140 125 379 370 477 491 271 331 401 628 363 831 -51 278
-324 409 -782 378 -250 -16 -574 -84 -878 -184 -79 -26 -146 -44 -149 -42 -2
3 -17 64 -33 136 -174 790 -440 1273 -753 1366 -67 20 -159 18 -228 -4z m241
-150 c185 -95 358 -385 494 -823 59 -192 136 -512 136 -568 0 -12 -18 -24 -62
-40 -94 -34 -332 -137 -521 -225 l-167 -78 -177 83 c-162 75 -408 181 -525
225 -34 12 -48 23 -48 36 0 27 47 249 76 359 154 583 365 963 581 1045 56 22
158 15 213 -14z m-1890 -1277 c221 -28 431 -78 716 -169 l140 -45 -18 -118
c-20 -135 -55 -448 -66 -602 l-7 -105 -80 -54 c-119 -81 -356 -255 -474 -348
-57 -46 -107 -83 -111 -83 -14 0 -228 200 -365 341 -286 294 -454 542 -514
759 -98 352 176 502 779 424z m3920 16 c240 -22 365 -91 406 -226 19 -64 18
-117 -5 -207 -38 -145 -147 -336 -308 -537 -114 -143 -525 -551 -572 -568 -4
-1 -55 35 -114 82 -103 82 -357 268 -487 357 l-65 45 -11 149 c-13 165 -47
464 -68 591 l-13 81 141 46 c338 111 648 176 901 190 33 2 65 4 70 5 6 1 62
-3 125 -8z m-2640 -400 c80 -34 188 -82 240 -107 l95 -44 -58 -32 c-174 -96
-448 -253 -538 -310 -57 -36 -105 -64 -106 -63 -7 7 46 484 68 612 l11 62 71
-28 c40 -15 137 -56 217 -90z m1289 -16 c11 -71 27 -201 35 -289 9 -88 19
-182 22 -209 l5 -49 -27 18 c-122 80 -486 291 -612 354 -34 17 -60 35 -58 40
10 15 604 273 613 266 2 -1 12 -60 22 -131z m-716 -255 c169 -86 455 -251 668
-385 l116 -74 6 -98 c9 -126 9 -688 0 -814 l-6 -98 -116 -73 c-218 -138 -510
-306 -689 -396 l-63 -32 -132 69 c-209 110 -636 361 -717 422 l-25 19 -3 376
c-3 207 -1 432 3 501 l7 124 117 73 c231 146 713 420 749 427 1 0 39 -19 85
-41z m-1098 -963 c0 -267 -3 -402 -10 -398 -66 38 -273 189 -428 311 l-109 86
34 28 c73 62 501 377 512 377 1 0 1 -182 1 -404z m2212 278 c139 -101 363
-272 363 -278 0 -11 -451 -349 -518 -388 l-27 -16 0 403 c0 373 1 402 17 394
9 -5 83 -57 165 -115z m-2771 -445 c100 -80 319 -242 469 -345 l100 -70 7 -99
c12 -161 38 -410 59 -553 26 -178 27 -167 -28 -187 -752 -263 -1380 -292
-1548 -72 -56 75 -67 165 -35 293 54 215 248 499 544 797 135 136 322 307 336
307 4 0 47 -32 96 -71z m3351 -16 c304 -271 571 -583 686 -803 149 -284 139
-478 -30 -577 -230 -134 -739 -95 -1362 107 l-157 51 13 82 c20 129 54 428 67
592 l11 149 100 70 c153 106 380 273 474 349 46 37 87 67 91 67 5 0 52 -39
107 -87z m-2443 -611 c159 -95 350 -203 445 -251 35 -18 60 -36 55 -41 -14
-13 -332 -155 -481 -215 l-132 -53 -5 27 c-3 14 -12 76 -20 136 -14 95 -22
170 -51 464 l-5 54 26 -18 c15 -10 91 -56 168 -103z m1521 71 c-3 -27 -12
-120 -21 -208 -14 -145 -50 -415 -57 -420 -8 -7 -603 250 -612 265 -2 3 69 46
158 95 89 49 245 139 347 201 102 62 186 113 188 113 1 1 0 -20 -3 -46z m-679
-522 c159 -74 421 -187 527 -226 33 -12 47 -23 47 -36 0 -36 -61 -305 -101
-449 -83 -293 -191 -552 -297 -711 -72 -106 -184 -211 -256 -238 -116 -43
-208 -17 -323 92 -160 152 -296 423 -413 824 -39 133 -110 443 -110 480 0 14
33 31 148 77 139 56 493 214 557 249 17 9 35 16 41 17 7 0 88 -36 180 -79z"/>
<path d="M5034 5452 c-121 -43 -191 -148 -182 -274 5 -75 26 -122 76 -173 106
-108 278 -108 384 0 51 51 71 99 76 177 3 55 0 76 -20 120 -61 132 -204 197
-334 150z"/>
</g>
</svg>
