<svg xmlns="http://www.w3.org/2000/svg" width="24" height="24">
  <path d="M12 15a3 3 0 0 0 2.1-.9 3 3 0 0 0 0-4.2 3 3 0 0 0-4.2 0 3 3 0 0 0 0 4.2 3 3 0 0 0 2.1.9m0-13c2.8 0 5.1 1 7 3 2 1.9 3 4.3 3 7v1.4c0 1-.4 1.9-1 2.6-.7.7-1.5 1-2.5 1-1.2 0-2.2-.5-3-1.5a5 5 0 0 1-7.1 0A5 5 0 0 1 7 12a5 5 0 0 1 1.5-3.5A5 5 0 0 1 12 7a5 5 0 0 1 3.5 1.5A5 5 0 0 1 17 12v1.4c0 .5.2.8.5 1.1a1.4 1.4 0 0 0 2 0c.4-.3.5-.6.5-1V12c0-2.2-.8-4-2.4-5.7A7.7 7.7 0 0 0 12 4c-2.2 0-4 .8-5.7 2.3A7.7 7.7 0 0 0 4 12c0 2.2.8 4 2.3 5.6A7.7 7.7 0 0 0 12 20h5v2h-5c-2.8 0-5.1-1-7-3-2-1.9-3-4.3-3-7 0-2.8 1-5.1 3-7 1.9-2 4.3-3 7-3z"/>
</svg>