<svg viewBox="0 0 300 300" xmlns="http://www.w3.org/2000/svg" xmlns:xlink="http://www.w3.org/1999/xlink"><defs><linearGradient id="prefix__b"><stop stop-color="#1f1f1f"/></linearGradient><linearGradient id="prefix__d" gradientUnits="userSpaceOnUse" x1="76.154" y1="53.205" x2="76.154" y2="162.051" gradientTransform="matrix(.83103 .55622 -.69965 1 88.17 -42.358)" xlink:href="#prefix__a"/><linearGradient id="prefix__a"><stop offset="0" stop-color="#464646"/><stop offset="1"/></linearGradient><linearGradient id="prefix__e" gradientUnits="userSpaceOnUse" x1="76.154" y1="53.205" x2="76.154" y2="162.051" gradientTransform="matrix(.81085 .58525 -.69965 1 89.706 -44.57)" xlink:href="#prefix__a"/><linearGradient id="prefix__f"><stop stop-color="#42a5f5"/></linearGradient><linearGradient id="prefix__g" gradientUnits="userSpaceOnUse" x1="76.154" y1="53.205" x2="76.154" y2="162.051" gradientTransform="matrix(.83103 .55622 -.69965 1 88.17 -42.358)" xlink:href="#prefix__a"/><linearGradient id="prefix__i" gradientUnits="userSpaceOnUse" x1="76.154" y1="53.205" x2="76.154" y2="162.051" gradientTransform="matrix(.81085 .58525 -.69965 1 89.706 -44.57)" xlink:href="#prefix__a"/><linearGradient id="prefix__j" gradientUnits="userSpaceOnUse" x1="76.154" y1="53.205" x2="76.154" y2="162.051" gradientTransform="matrix(.83103 .55622 -.69965 1 88.17 -42.358)" xlink:href="#prefix__a"/><linearGradient id="prefix__l" gradientUnits="userSpaceOnUse" x1="76.154" y1="53.205" x2="76.154" y2="162.051" gradientTransform="matrix(.81085 .58525 -.69965 1 89.706 -44.57)" xlink:href="#prefix__a"/><linearGradient id="prefix__m" gradientUnits="userSpaceOnUse" x1="76.154" y1="53.205" x2="76.154" y2="162.051" gradientTransform="matrix(.83103 .55622 -.69965 1 88.17 -42.358)" xlink:href="#prefix__a"/><linearGradient id="prefix__o" gradientUnits="userSpaceOnUse" x1="76.154" y1="53.205" x2="76.154" y2="162.051" gradientTransform="matrix(.81085 .58525 -.69965 1 89.706 -44.57)" xlink:href="#prefix__a"/><linearGradient id="prefix__p"><stop stop-color="#7e57c2"/></linearGradient><linearGradient id="prefix__q" gradientUnits="userSpaceOnUse" x1="76.154" y1="53.205" x2="76.154" y2="162.051" gradientTransform="matrix(.83103 .55622 -.69965 1 88.17 -42.358)" xlink:href="#prefix__a"/><linearGradient id="prefix__s" gradientUnits="userSpaceOnUse" x1="76.154" y1="53.205" x2="76.154" y2="162.051" gradientTransform="matrix(.81085 .58525 -.69965 1 89.706 -44.57)" xlink:href="#prefix__a"/><linearGradient id="prefix__t"><stop stop-color="#ff9800"/></linearGradient><linearGradient id="prefix__u" gradientUnits="userSpaceOnUse" x1="76.154" y1="53.205" x2="76.154" y2="162.051" gradientTransform="matrix(.83103 .55622 -.69965 1 88.17 -42.358)" xlink:href="#prefix__a"/><linearGradient id="prefix__w" gradientUnits="userSpaceOnUse" x1="76.154" y1="53.205" x2="76.154" y2="162.051" gradientTransform="matrix(.81085 .58525 -.69965 1 89.706 -44.57)" xlink:href="#prefix__a"/><linearGradient id="prefix__x" gradientUnits="userSpaceOnUse" x1="76.154" y1="53.205" x2="76.154" y2="162.051" gradientTransform="matrix(.83103 .55622 -.69965 1 88.17 -42.358)" xlink:href="#prefix__a"/><linearGradient id="prefix__z" gradientUnits="userSpaceOnUse" x1="76.154" y1="53.205" x2="76.154" y2="162.051" gradientTransform="matrix(.81085 .58525 -.69965 1 89.706 -44.57)" xlink:href="#prefix__a"/><linearGradient id="prefix__A" gradientUnits="userSpaceOnUse" x1="76.154" y1="53.205" x2="76.154" y2="162.051" gradientTransform="matrix(.83103 .55622 -.69965 1 88.17 -42.358)" xlink:href="#prefix__a"/><linearGradient id="prefix__C" gradientUnits="userSpaceOnUse" x1="76.154" y1="53.205" x2="76.154" y2="162.051" gradientTransform="matrix(.81085 .58525 -.69965 1 89.706 -44.57)" xlink:href="#prefix__a"/><linearGradient id="prefix__D" gradientUnits="userSpaceOnUse" x1="76.154" y1="53.205" x2="76.154" y2="162.051" gradientTransform="matrix(.83103 .55622 -.69965 1 88.17 -42.358)" xlink:href="#prefix__a"/><linearGradient id="prefix__F" gradientUnits="userSpaceOnUse" x1="76.154" y1="53.205" x2="76.154" y2="162.051" gradientTransform="matrix(.81085 .58525 -.69965 1 89.706 -44.57)" xlink:href="#prefix__a"/><filter id="prefix__c" x="-500%" y="-500%" width="1000%" height="1000%"><feGaussianBlur in="SourceAlpha" stdDeviation="6"/><feOffset dy="8"/><feComponentTransfer result="offsetblur"><feFuncA type="linear"/></feComponentTransfer><feFlood flood-color="rgba(0,0,0,0.3)"/><feComposite in2="offsetblur" operator="in"/><feMerge><feMergeNode/><feMergeNode in="SourceGraphic"/></feMerge></filter><filter id="prefix__h" x="-500%" y="-500%" width="1000%" height="1000%"><feGaussianBlur in="SourceAlpha" stdDeviation="6"/><feOffset dy="8"/><feComponentTransfer result="offsetblur"><feFuncA type="linear"/></feComponentTransfer><feFlood flood-color="rgba(0,0,0,0.3)"/><feComposite in2="offsetblur" operator="in"/><feMerge><feMergeNode/><feMergeNode in="SourceGraphic"/></feMerge></filter><filter id="prefix__k" x="-500%" y="-500%" width="1000%" height="1000%"><feGaussianBlur in="SourceAlpha" stdDeviation="6"/><feOffset dy="8"/><feComponentTransfer result="offsetblur"><feFuncA type="linear"/></feComponentTransfer><feFlood flood-color="rgba(0,0,0,0.3)"/><feComposite in2="offsetblur" operator="in"/><feMerge><feMergeNode/><feMergeNode in="SourceGraphic"/></feMerge></filter><filter id="prefix__n" x="-500%" y="-500%" width="1000%" height="1000%"><feGaussianBlur in="SourceAlpha" stdDeviation="6"/><feOffset dy="8"/><feComponentTransfer result="offsetblur"><feFuncA type="linear"/></feComponentTransfer><feFlood flood-color="rgba(0,0,0,0.3)"/><feComposite in2="offsetblur" operator="in"/><feMerge><feMergeNode/><feMergeNode in="SourceGraphic"/></feMerge></filter><filter id="prefix__r" x="-500%" y="-500%" width="1000%" height="1000%"><feGaussianBlur in="SourceAlpha" stdDeviation="6"/><feOffset dy="8"/><feComponentTransfer result="offsetblur"><feFuncA type="linear"/></feComponentTransfer><feFlood flood-color="rgba(0,0,0,0.3)"/><feComposite in2="offsetblur" operator="in"/><feMerge><feMergeNode/><feMergeNode in="SourceGraphic"/></feMerge></filter><filter id="prefix__v" x="-500%" y="-500%" width="1000%" height="1000%"><feGaussianBlur in="SourceAlpha" stdDeviation="6"/><feOffset dy="8"/><feComponentTransfer result="offsetblur"><feFuncA type="linear"/></feComponentTransfer><feFlood flood-color="rgba(0,0,0,0.3)"/><feComposite in2="offsetblur" operator="in"/><feMerge><feMergeNode/><feMergeNode in="SourceGraphic"/></feMerge></filter><filter id="prefix__y" x="-500%" y="-500%" width="1000%" height="1000%"><feGaussianBlur in="SourceAlpha" stdDeviation="6"/><feOffset dy="8"/><feComponentTransfer result="offsetblur"><feFuncA type="linear"/></feComponentTransfer><feFlood flood-color="rgba(0,0,0,0.3)"/><feComposite in2="offsetblur" operator="in"/><feMerge><feMergeNode/><feMergeNode in="SourceGraphic"/></feMerge></filter><filter id="prefix__B" x="-500%" y="-500%" width="1000%" height="1000%"><feGaussianBlur in="SourceAlpha" stdDeviation="6"/><feOffset dy="8"/><feComponentTransfer result="offsetblur"><feFuncA type="linear"/></feComponentTransfer><feFlood flood-color="rgba(0,0,0,0.3)"/><feComposite in2="offsetblur" operator="in"/><feMerge><feMergeNode/><feMergeNode in="SourceGraphic"/></feMerge></filter><filter id="prefix__E" x="-500%" y="-500%" width="1000%" height="1000%"><feGaussianBlur in="SourceAlpha" stdDeviation="6"/><feOffset dy="8"/><feComponentTransfer result="offsetblur"><feFuncA type="linear"/></feComponentTransfer><feFlood flood-color="rgba(0,0,0,0.3)"/><feComposite in2="offsetblur" operator="in"/><feMerge><feMergeNode/><feMergeNode in="SourceGraphic"/></feMerge></filter></defs><path fill="url(#prefix__b)" d="M0 0h300v300H0z"/><g transform="matrix(.76226 0 0 .76226 3.038 71.072)"><rect x="38.077" y="53.205" width="76.154" height="108.846" rx="16" ry="16" filter="url(#prefix__c)" fill="url(#prefix__d)"/><rect x="38.077" y="53.205" width="76.154" height="108.846" rx="16" ry="16" filter="none" fill="url(#prefix__e)"/><path d="M85.309 94.263v25.59h-5.28v-10.97h-10.28v10.97h-5.27v-25.59h5.27v10.37h10.28v-10.37h5.28zM49.057 65.101v5.7h-1.13v-4.35l-1.35.42v-.92l2.36-.85h.12z" style="text-transform:capitalize;white-space:pre" fill="url(#prefix__f)"/></g><g transform="matrix(.76226 0 0 .76226 12.542 79.431)"><rect x="38.077" y="53.205" width="76.154" height="108.846" rx="16" ry="16" fill="url(#prefix__g)" filter="url(#prefix__h)"/><rect x="38.077" y="53.205" width="76.154" height="108.846" rx="16" ry="16" filter="none" fill="url(#prefix__i)"/><path d="M85.309 94.263v25.59h-5.28v-10.97h-10.28v10.97h-5.27v-25.59h5.27v10.37h10.28v-10.37h5.28zM49.057 65.101v5.7h-1.13v-4.35l-1.35.42v-.92l2.36-.85h.12z" style="text-transform:capitalize;white-space:pre" fill="url(#prefix__f)"/></g><g transform="matrix(.76226 0 0 .76226 76.802 71.072)"><rect x="38.077" y="53.205" width="76.154" height="108.846" rx="16" ry="16" fill="url(#prefix__j)" filter="url(#prefix__k)"/><rect x="38.077" y="53.205" width="76.154" height="108.846" rx="16" ry="16" filter="none" fill="url(#prefix__l)"/><path d="M87.499 106.493v1.14c0 2.52-.447 4.73-1.34 6.63-.887 1.9-2.16 3.363-3.82 4.39-1.66 1.033-3.56 1.55-5.7 1.55-2.127 0-4.02-.51-5.68-1.53-1.667-1.02-2.957-2.477-3.87-4.37-.913-1.887-1.377-4.063-1.39-6.53v-1.26c0-2.52.453-4.74 1.36-6.66.913-1.913 2.197-3.383 3.85-4.41 1.66-1.027 3.557-1.54 5.69-1.54 2.133 0 4.03.513 5.69 1.54 1.653 1.027 2.937 2.497 3.85 4.41.907 1.92 1.36 4.133 1.36 6.64zm-5.35 1.23v-1.25c0-2.68-.48-4.717-1.44-6.11-.96-1.4-2.33-2.1-4.11-2.1-1.767 0-3.133.69-4.1 2.07-.96 1.373-1.443 3.393-1.45 6.06v1.24c0 2.613.48 4.643 1.44 6.09.96 1.44 2.343 2.16 4.15 2.16 1.767 0 3.123-.697 4.07-2.09.953-1.387 1.433-3.41 1.44-6.07zM50.017 66.621c0 .28-.067.527-.2.74-.14.213-.33.383-.57.51.273.133.49.317.65.55.16.233.24.507.24.82 0 .507-.17.907-.51 1.2-.347.293-.813.44-1.4.44-.593 0-1.063-.147-1.41-.44-.347-.293-.52-.693-.52-1.2 0-.313.08-.587.24-.82.167-.233.387-.417.66-.55a1.417 1.417 0 0 1-.57-.51c-.14-.213-.21-.46-.21-.74 0-.48.163-.863.49-1.15.32-.293.757-.44 1.31-.44s.993.143 1.32.43c.32.287.48.673.48 1.16zm-1.01 2.54c0-.247-.07-.443-.21-.59a.767.767 0 0 0-.58-.23.783.783 0 0 0-.58.22c-.14.147-.21.347-.21.6 0 .24.07.437.21.59.14.147.337.22.59.22.24 0 .43-.073.57-.22.14-.14.21-.337.21-.59zm-.12-2.48c0-.22-.057-.397-.17-.53-.12-.14-.287-.21-.5-.21a.627.627 0 0 0-.49.2c-.113.133-.17.313-.17.54 0 .227.057.41.17.55.12.133.287.2.5.2.213 0 .377-.067.49-.2.113-.14.17-.323.17-.55z" style="text-transform:capitalize;white-space:pre" fill="url(#prefix__f)"/></g><g transform="translate(0 -30)"><g transform="translate(-23.31 -83.38)"><rect x="38.077" y="53.205" width="76.154" height="108.846" rx="16" ry="16" fill="url(#prefix__m)" filter="url(#prefix__n)"/><rect x="38.077" y="53.205" width="76.154" height="108.846" rx="16" ry="16" filter="none" fill="url(#prefix__o)"/></g><g transform="translate(73.462 -83.38)"><rect x="38.077" y="53.205" width="76.154" height="108.846" rx="16" ry="16" fill="url(#prefix__q)" filter="url(#prefix__r)"/><rect x="38.077" y="53.205" width="76.154" height="108.846" rx="16" ry="16" filter="none" fill="url(#prefix__s)"/></g><g transform="translate(171.642 -83.38)"><rect x="38.077" y="53.205" width="76.154" height="108.846" rx="16" ry="16" fill="url(#prefix__u)" filter="url(#prefix__v)"/><rect x="38.077" y="53.205" width="76.154" height="108.846" rx="16" ry="16" filter="none" fill="url(#prefix__w)"/></g></g><g transform="translate(0 279.409)"><g transform="translate(-23.31 -83.38)"><rect x="38.077" y="53.205" width="76.154" height="108.846" rx="16" ry="16" fill="url(#prefix__x)" filter="url(#prefix__y)"/><rect x="38.077" y="53.205" width="76.154" height="108.846" rx="16" ry="16" filter="none" fill="url(#prefix__z)"/></g><g transform="translate(73.462 -83.38)"><rect x="38.077" y="53.205" width="76.154" height="108.846" rx="16" ry="16" fill="url(#prefix__A)" filter="url(#prefix__B)"/><rect x="38.077" y="53.205" width="76.154" height="108.846" rx="16" ry="16" filter="none" fill="url(#prefix__C)"/></g><g transform="translate(171.642 -83.38)"><rect x="38.077" y="53.205" width="76.154" height="108.846" rx="16" ry="16" fill="url(#prefix__D)" filter="url(#prefix__E)"/><rect x="38.077" y="53.205" width="76.154" height="108.846" rx="16" ry="16" filter="none" fill="url(#prefix__F)"/></g></g><path d="m186.061 154.795.45-5.11c1.507-1.507 3.277-2.26 5.31-2.26a6.828 6.828 0 0 1 2.71.5c.853.34 1.643.717 2.37 1.13.72.407 1.447.753 2.18 1.04.727.287 1.52.43 2.38.43.82 0 1.643-.197 2.47-.59.833-.393 1.8-1.1 2.9-2.12l-.51 5.11c-1.447 1.52-3.03 2.28-4.75 2.28-.887 0-1.707-.15-2.46-.45-.753-.3-1.527-.67-2.32-1.11-.793-.433-1.57-.8-2.33-1.1-.76-.3-1.6-.45-2.52-.45-1.973.027-3.933.927-5.88 2.7zm-1.57 9.03.47-5.12c1.48-1.5 3.193-2.25 5.14-2.25a6.953 6.953 0 0 1 2.58.43c.787.3 1.583.677 2.39 1.13.807.447 1.573.813 2.3 1.1.72.287 1.503.43 2.35.43 1.747 0 3.597-.903 5.55-2.71l-.5 5.12c-1.5 1.533-3.14 2.283-4.92 2.25a6.65 6.65 0 0 1-2.45-.44 20.33 20.33 0 0 1-2.31-1.09c-.793-.44-1.57-.81-2.33-1.11-.76-.3-1.597-.45-2.51-.45-1.82 0-3.74.903-5.76 2.71zm54.416-25.81-5.26 31.35h-6.06l4.13-23.8-7.61 2.29.95-5.3 13.06-4.51.79-.03zm28.687 8.21c-.2 3.053-1.99 5.44-5.37 7.16 1.213.84 2.123 1.883 2.73 3.13.6 1.247.85 2.607.75 4.08-.16 2.813-1.3 5.063-3.42 6.75-2.12 1.693-4.74 2.51-7.86 2.45-2.854-.027-5.144-.843-6.87-2.45-1.72-1.607-2.504-3.727-2.35-6.36.2-3.467 2.243-6.087 6.13-7.86-2.107-1.68-3.09-3.863-2.95-6.55.1-1.78.623-3.357 1.57-4.73.946-1.373 2.216-2.427 3.81-3.16 1.6-.733 3.346-1.077 5.24-1.03 2.706.053 4.853.86 6.44 2.42 1.593 1.553 2.31 3.603 2.15 6.15zm-7.86 13.94c.153-1.227-.07-2.25-.67-3.07-.6-.813-1.487-1.237-2.66-1.27-1.307-.027-2.43.397-3.37 1.27-.934.873-1.494 2.02-1.68 3.44-.16 1.233.056 2.247.65 3.04.593.793 1.493 1.207 2.7 1.24 1.313.027 2.433-.39 3.36-1.25.926-.86 1.483-1.993 1.67-3.4zm1.74-13.64c.126-1.173-.06-2.107-.56-2.8-.5-.693-1.247-1.057-2.24-1.09-1.127-.027-2.087.35-2.88 1.13-.787.78-1.257 1.817-1.41 3.11-.134 1.16.04 2.107.52 2.84.48.74 1.23 1.123 2.25 1.15 1.113.027 2.073-.363 2.88-1.17.8-.807 1.28-1.863 1.44-3.17zM92.463 74.902v18.84h-3.89v-8.07h-7.57v8.07h-3.88v-18.84h3.88v7.63h7.57v-7.63h3.89zM102.036 92.072v1.67h-7.16v-1.42l3.38-3.6c.467-.513.81-.957 1.03-1.33.227-.38.34-.74.34-1.08 0-.467-.12-.83-.36-1.09-.233-.267-.566-.4-1-.4-.466 0-.836.16-1.11.48-.273.327-.41.753-.41 1.28h-2.08c0-.64.154-1.223.46-1.75.3-.527.73-.94 1.29-1.24.554-.293 1.18-.44 1.88-.44 1.08 0 1.917.257 2.51.77.6.52.9 1.25.9 2.19 0 .52-.136 1.047-.41 1.58-.266.533-.723 1.157-1.37 1.87l-2.38 2.51h4.49zM119.753 83.912v.84c0 1.853-.33 3.48-.99 4.88-.653 1.393-1.59 2.47-2.81 3.23-1.22.76-2.62 1.14-4.2 1.14-1.56 0-2.953-.377-4.18-1.13-1.227-.747-2.173-1.817-2.84-3.21-.673-1.393-1.017-2.997-1.03-4.81v-.93c0-1.853.337-3.487 1.01-4.9.667-1.407 1.61-2.49 2.83-3.25 1.22-.753 2.617-1.13 4.19-1.13 1.567 0 2.96.377 4.18 1.13 1.22.76 2.163 1.843 2.83 3.25.673 1.413 1.01 3.043 1.01 4.89zm-3.94.9v-.92c0-1.973-.353-3.473-1.06-4.5-.707-1.027-1.713-1.54-3.02-1.54s-2.313.507-3.02 1.52c-.707 1.013-1.063 2.5-1.07 4.46v.92c0 1.92.353 3.41 1.06 4.47.707 1.067 1.723 1.6 3.05 1.6 1.3 0 2.3-.513 3-1.54.7-1.02 1.053-2.51 1.06-4.47z" style="white-space:pre" fill="url(#prefix__f)"/><path fill="url(#prefix__f)" d="M75.438 97.411h45.453v4H75.438z"/></svg>