<svg viewBox="0 0 300 300" xmlns="http://www.w3.org/2000/svg" xmlns:xlink="http://www.w3.org/1999/xlink"><defs><linearGradient id="prefix__b"><stop stop-color="#1f1f1f"/></linearGradient><linearGradient id="prefix__d" gradientUnits="userSpaceOnUse" x1="76.154" y1="53.205" x2="76.154" y2="162.051" gradientTransform="matrix(.83103 .55622 -.69965 1 88.17 -42.358)" xlink:href="#prefix__a"/><linearGradient id="prefix__a"><stop offset="0" stop-color="#464646"/><stop offset="1"/></linearGradient><linearGradient id="prefix__e" gradientUnits="userSpaceOnUse" x1="76.154" y1="53.205" x2="76.154" y2="162.051" gradientTransform="matrix(.81085 .58525 -.69965 1 89.706 -44.57)" xlink:href="#prefix__a"/><linearGradient id="prefix__f"><stop stop-color="#7e57c2"/></linearGradient><linearGradient id="prefix__g" gradientUnits="userSpaceOnUse" x1="76.154" y1="53.205" x2="76.154" y2="162.051" gradientTransform="matrix(.83103 .55622 -.69965 1 88.17 -42.358)" xlink:href="#prefix__a"/><linearGradient id="prefix__i" gradientUnits="userSpaceOnUse" x1="76.154" y1="53.205" x2="76.154" y2="162.051" gradientTransform="matrix(.81085 .58525 -.69965 1 89.706 -44.57)" xlink:href="#prefix__a"/><linearGradient id="prefix__j"><stop stop-color="#ff9800"/></linearGradient><linearGradient id="prefix__k" gradientUnits="userSpaceOnUse" x1="76.154" y1="53.205" x2="76.154" y2="162.051" gradientTransform="matrix(.83103 .55622 -.69965 1 88.17 -42.358)" xlink:href="#prefix__a"/><linearGradient id="prefix__m" gradientUnits="userSpaceOnUse" x1="76.154" y1="53.205" x2="76.154" y2="162.051" gradientTransform="matrix(.81085 .58525 -.69965 1 89.706 -44.57)" xlink:href="#prefix__a"/><linearGradient id="prefix__n" gradientUnits="userSpaceOnUse" x1="76.154" y1="53.205" x2="76.154" y2="162.051" gradientTransform="matrix(.83103 .55622 -.69965 1 88.17 -42.358)" xlink:href="#prefix__a"/><linearGradient id="prefix__p" gradientUnits="userSpaceOnUse" x1="76.154" y1="53.205" x2="76.154" y2="162.051" gradientTransform="matrix(.81085 .58525 -.69965 1 89.706 -44.57)" xlink:href="#prefix__a"/><linearGradient id="prefix__q" gradientUnits="userSpaceOnUse" x1="76.154" y1="53.205" x2="76.154" y2="162.051" gradientTransform="matrix(.83103 .55622 -.69965 1 88.17 -42.358)" xlink:href="#prefix__a"/><linearGradient id="prefix__s" gradientUnits="userSpaceOnUse" x1="76.154" y1="53.205" x2="76.154" y2="162.051" gradientTransform="matrix(.81085 .58525 -.69965 1 89.706 -44.57)" xlink:href="#prefix__a"/><linearGradient id="prefix__t" gradientUnits="userSpaceOnUse" x1="76.154" y1="53.205" x2="76.154" y2="162.051" gradientTransform="matrix(.83103 .55622 -.69965 1 88.17 -42.358)" xlink:href="#prefix__a"/><linearGradient id="prefix__v" gradientUnits="userSpaceOnUse" x1="76.154" y1="53.205" x2="76.154" y2="162.051" gradientTransform="matrix(.81085 .58525 -.69965 1 89.706 -44.57)" xlink:href="#prefix__a"/><linearGradient id="prefix__w" gradientUnits="userSpaceOnUse" x1="76.154" y1="53.205" x2="76.154" y2="162.051" gradientTransform="matrix(.83103 .55622 -.69965 1 88.17 -42.358)" xlink:href="#prefix__a"/><linearGradient id="prefix__y" gradientUnits="userSpaceOnUse" x1="76.154" y1="53.205" x2="76.154" y2="162.051" gradientTransform="matrix(.81085 .58525 -.69965 1 89.706 -44.57)" xlink:href="#prefix__a"/><linearGradient id="prefix__z" gradientUnits="userSpaceOnUse" x1="76.154" y1="53.205" x2="76.154" y2="162.051" gradientTransform="matrix(.83103 .55622 -.69965 1 88.17 -42.358)" xlink:href="#prefix__a"/><linearGradient id="prefix__B" gradientUnits="userSpaceOnUse" x1="76.154" y1="53.205" x2="76.154" y2="162.051" gradientTransform="matrix(.81085 .58525 -.69965 1 89.706 -44.57)" xlink:href="#prefix__a"/><linearGradient id="prefix__C" gradientUnits="userSpaceOnUse" x1="76.154" y1="53.205" x2="76.154" y2="162.051" gradientTransform="matrix(.83103 .55622 -.69965 1 88.17 -42.358)" xlink:href="#prefix__a"/><linearGradient id="prefix__E" gradientUnits="userSpaceOnUse" x1="76.154" y1="53.205" x2="76.154" y2="162.051" gradientTransform="matrix(.81085 .58525 -.69965 1 89.706 -44.57)" xlink:href="#prefix__a"/><filter id="prefix__c" x="-500%" y="-500%" width="1000%" height="1000%"><feGaussianBlur in="SourceAlpha" stdDeviation="6"/><feOffset dy="8"/><feComponentTransfer result="offsetblur"><feFuncA type="linear"/></feComponentTransfer><feFlood flood-color="rgba(0,0,0,0.3)"/><feComposite in2="offsetblur" operator="in"/><feMerge><feMergeNode/><feMergeNode in="SourceGraphic"/></feMerge></filter><filter id="prefix__h" x="-500%" y="-500%" width="1000%" height="1000%"><feGaussianBlur in="SourceAlpha" stdDeviation="6"/><feOffset dy="8"/><feComponentTransfer result="offsetblur"><feFuncA type="linear"/></feComponentTransfer><feFlood flood-color="rgba(0,0,0,0.3)"/><feComposite in2="offsetblur" operator="in"/><feMerge><feMergeNode/><feMergeNode in="SourceGraphic"/></feMerge></filter><filter id="prefix__l" x="-500%" y="-500%" width="1000%" height="1000%"><feGaussianBlur in="SourceAlpha" stdDeviation="6"/><feOffset dy="8"/><feComponentTransfer result="offsetblur"><feFuncA type="linear"/></feComponentTransfer><feFlood flood-color="rgba(0,0,0,0.3)"/><feComposite in2="offsetblur" operator="in"/><feMerge><feMergeNode/><feMergeNode in="SourceGraphic"/></feMerge></filter><filter id="prefix__o" x="-500%" y="-500%" width="1000%" height="1000%"><feGaussianBlur in="SourceAlpha" stdDeviation="6"/><feOffset dy="8"/><feComponentTransfer result="offsetblur"><feFuncA type="linear"/></feComponentTransfer><feFlood flood-color="rgba(0,0,0,0.3)"/><feComposite in2="offsetblur" operator="in"/><feMerge><feMergeNode/><feMergeNode in="SourceGraphic"/></feMerge></filter><filter id="prefix__r" x="-500%" y="-500%" width="1000%" height="1000%"><feGaussianBlur in="SourceAlpha" stdDeviation="6"/><feOffset dy="8"/><feComponentTransfer result="offsetblur"><feFuncA type="linear"/></feComponentTransfer><feFlood flood-color="rgba(0,0,0,0.3)"/><feComposite in2="offsetblur" operator="in"/><feMerge><feMergeNode/><feMergeNode in="SourceGraphic"/></feMerge></filter><filter id="prefix__u" x="-500%" y="-500%" width="1000%" height="1000%"><feGaussianBlur in="SourceAlpha" stdDeviation="6"/><feOffset dy="8"/><feComponentTransfer result="offsetblur"><feFuncA type="linear"/></feComponentTransfer><feFlood flood-color="rgba(0,0,0,0.3)"/><feComposite in2="offsetblur" operator="in"/><feMerge><feMergeNode/><feMergeNode in="SourceGraphic"/></feMerge></filter><filter id="prefix__x" x="-500%" y="-500%" width="1000%" height="1000%"><feGaussianBlur in="SourceAlpha" stdDeviation="6"/><feOffset dy="8"/><feComponentTransfer result="offsetblur"><feFuncA type="linear"/></feComponentTransfer><feFlood flood-color="rgba(0,0,0,0.3)"/><feComposite in2="offsetblur" operator="in"/><feMerge><feMergeNode/><feMergeNode in="SourceGraphic"/></feMerge></filter><filter id="prefix__A" x="-500%" y="-500%" width="1000%" height="1000%"><feGaussianBlur in="SourceAlpha" stdDeviation="6"/><feOffset dy="8"/><feComponentTransfer result="offsetblur"><feFuncA type="linear"/></feComponentTransfer><feFlood flood-color="rgba(0,0,0,0.3)"/><feComposite in2="offsetblur" operator="in"/><feMerge><feMergeNode/><feMergeNode in="SourceGraphic"/></feMerge></filter><filter id="prefix__D" x="-500%" y="-500%" width="1000%" height="1000%"><feGaussianBlur in="SourceAlpha" stdDeviation="6"/><feOffset dy="8"/><feComponentTransfer result="offsetblur"><feFuncA type="linear"/></feComponentTransfer><feFlood flood-color="rgba(0,0,0,0.3)"/><feComposite in2="offsetblur" operator="in"/><feMerge><feMergeNode/><feMergeNode in="SourceGraphic"/></feMerge></filter></defs><path fill="url(#prefix__b)" d="M0 0h300v300H0z"/><g transform="translate(-23.31 42.692)"><rect x="38.077" y="53.205" width="76.154" height="108.846" rx="16" ry="16" filter="url(#prefix__c)" fill="url(#prefix__d)"/><rect x="38.077" y="53.205" width="76.154" height="108.846" rx="16" ry="16" filter="none" fill="url(#prefix__e)"/><path d="M76.234 95.263v25.59h-5.28v-10.97h-10.28v10.97h-5.27v-25.59h5.27v10.37h10.28v-10.37h5.28zm3.476 16.13v-.23c0-1.887.363-3.567 1.09-5.04.726-1.48 1.773-2.623 3.14-3.43 1.366-.807 2.95-1.21 4.75-1.21 2.566 0 4.663.783 6.29 2.35 1.62 1.573 2.523 3.707 2.71 6.4l.04 1.3c0 2.92-.817 5.263-2.45 7.03-1.627 1.76-3.81 2.64-6.55 2.64-2.747 0-4.937-.88-6.57-2.64-1.634-1.753-2.45-4.143-2.45-7.17zm5.08.14c0 1.807.34 3.187 1.02 4.14.68.96 1.653 1.44 2.92 1.44 1.226 0 2.186-.473 2.88-1.42.693-.94 1.04-2.45 1.04-4.53 0-1.767-.347-3.137-1.04-4.11-.694-.973-1.667-1.46-2.92-1.46-1.24 0-2.2.483-2.88 1.45-.68.967-1.02 2.463-1.02 4.49zM49.187 65.051h.19v.93h-.11c-.513.013-.923.147-1.23.4-.313.26-.5.62-.56 1.08.3-.307.68-.46 1.14-.46.493 0 .887.177 1.18.53.293.353.44.817.44 1.39 0 .373-.08.71-.24 1.01-.16.3-.387.533-.68.7-.293.167-.627.25-1 .25-.593 0-1.077-.21-1.45-.63-.367-.413-.55-.967-.55-1.66v-.41c0-.62.117-1.167.35-1.64.233-.467.567-.83 1-1.09.44-.26.947-.393 1.52-.4zm-.91 2.85a.914.914 0 0 0-.5.14.949.949 0 0 0-.33.38v.34c0 .38.077.677.23.89a.71.71 0 0 0 .62.32.72.72 0 0 0 .59-.29c.147-.193.22-.44.22-.74 0-.313-.073-.563-.22-.75a.74.74 0 0 0-.61-.29zm6.49-2.79v.64l-2.2 5.05h-1.19l2.21-4.77h-2.83v-.92h4.01z" style="text-transform:capitalize;white-space:pre" fill="url(#prefix__f)"/></g><g transform="translate(73.462 42.692)"><rect x="38.077" y="53.205" width="76.154" height="108.846" rx="16" ry="16" fill="url(#prefix__g)" filter="url(#prefix__h)"/><rect x="38.077" y="53.205" width="76.154" height="108.846" rx="16" ry="16" filter="none" fill="url(#prefix__i)"/><path d="m71.877 120.467-4.8-9.37h-4.2v9.37h-5.27v-25.59h9.5c3.027 0 5.36.673 7 2.02 1.64 1.347 2.46 3.25 2.46 5.71 0 1.747-.377 3.203-1.13 4.37-.76 1.167-1.907 2.093-3.44 2.78l5.54 10.46v.25h-5.66zm-9-21.32v7.68h4.25c1.327 0 2.353-.337 3.08-1.01.727-.673 1.09-1.603 1.09-2.79 0-1.207-.343-2.157-1.03-2.85-.687-.687-1.74-1.03-3.16-1.03h-4.23zm28.895 21.32-.14-1.93c-1.254 1.52-2.987 2.28-5.2 2.28-2.04 0-3.597-.587-4.67-1.76-1.074-1.167-1.62-2.883-1.64-5.15v-12.46h5.08v12.29c0 1.98.903 2.97 2.71 2.97 1.72 0 2.903-.597 3.55-1.79v-13.47h5.09v19.02h-4.78zM49.657 65.111v3.55h.64v.91h-.64v1.23h-1.13v-1.23h-2.33l-.06-.71 2.38-3.75h1.14zm-1.21 1.67-1.18 1.88h1.26v-2.01l-.08.13zm5.8-1.67v3.55h.64v.91h-.64v1.23h-1.13v-1.23h-2.33l-.06-.71 2.38-3.75h1.14zm-1.21 1.67-1.18 1.88h1.26v-2.01l-.08.13z" style="text-transform:capitalize;white-space:pre" fill="url(#prefix__j)"/></g><g transform="translate(171.642 42.692)"><rect x="38.077" y="53.205" width="76.154" height="108.846" rx="16" ry="16" fill="url(#prefix__k)" filter="url(#prefix__l)"/><rect x="38.077" y="53.205" width="76.154" height="108.846" rx="16" ry="16" filter="none" fill="url(#prefix__m)"/><path d="M81.8 113.757c0-1-.353-1.767-1.06-2.3-.7-.533-1.963-1.097-3.79-1.69-1.833-.587-3.283-1.17-4.35-1.75-2.907-1.567-4.36-3.68-4.36-6.34 0-1.387.39-2.62 1.17-3.7.78-1.087 1.9-1.933 3.36-2.54 1.46-.613 3.097-.92 4.91-.92 1.833 0 3.463.333 4.89 1 1.427.66 2.537 1.593 3.33 2.8.793 1.207 1.19 2.577 1.19 4.11h-5.28c0-1.167-.367-2.077-1.1-2.73-.74-.647-1.777-.97-3.11-.97-1.293 0-2.297.27-3.01.81-.713.547-1.07 1.267-1.07 2.16 0 .827.417 1.523 1.25 2.09.84.56 2.073 1.087 3.7 1.58 3 .9 5.187 2.02 6.56 3.36 1.373 1.333 2.06 2.997 2.06 4.99 0 2.213-.84 3.95-2.52 5.21-1.673 1.26-3.927 1.89-6.76 1.89-1.973 0-3.767-.36-5.38-1.08-1.62-.72-2.853-1.707-3.7-2.96-.853-1.253-1.28-2.707-1.28-4.36h5.29c0 2.827 1.69 4.24 5.07 4.24 1.253 0 2.23-.257 2.93-.77.707-.507 1.06-1.217 1.06-2.13zM49.057 65.101v5.7h-1.13v-4.35l-1.35.42v-.92l2.36-.85h.12zm4.72-.05h.19v.93h-.11c-.513.013-.923.147-1.23.4-.313.26-.5.62-.56 1.08.3-.307.68-.46 1.14-.46.493 0 .887.177 1.18.53.293.353.44.817.44 1.39 0 .373-.08.71-.24 1.01-.16.3-.387.533-.68.7-.293.167-.627.25-1 .25-.593 0-1.077-.21-1.45-.63-.367-.413-.55-.967-.55-1.66v-.41c0-.62.117-1.167.35-1.64.233-.467.567-.83 1-1.09.44-.26.947-.393 1.52-.4zm-.91 2.85a.914.914 0 0 0-.5.14.949.949 0 0 0-.33.38v.34c0 .38.077.677.23.89a.71.71 0 0 0 .62.32.72.72 0 0 0 .59-.29c.147-.193.22-.44.22-.74 0-.313-.073-.563-.22-.75a.74.74 0 0 0-.61-.29z" style="text-transform:capitalize;white-space:pre" fill="#42a5f5"/></g><g transform="translate(-23.31 -83.38)"><rect x="38.077" y="53.205" width="76.154" height="108.846" rx="16" ry="16" fill="url(#prefix__n)" filter="url(#prefix__o)"/><rect x="38.077" y="53.205" width="76.154" height="108.846" rx="16" ry="16" filter="none" fill="url(#prefix__p)"/></g><g transform="translate(73.462 -83.38)"><rect x="38.077" y="53.205" width="76.154" height="108.846" rx="16" ry="16" fill="url(#prefix__q)" filter="url(#prefix__r)"/><rect x="38.077" y="53.205" width="76.154" height="108.846" rx="16" ry="16" filter="none" fill="url(#prefix__s)"/></g><g transform="translate(171.642 -83.38)"><rect x="38.077" y="53.205" width="76.154" height="108.846" rx="16" ry="16" fill="url(#prefix__t)" filter="url(#prefix__u)"/><rect x="38.077" y="53.205" width="76.154" height="108.846" rx="16" ry="16" filter="none" fill="url(#prefix__v)"/></g><g transform="translate(-23.31 166.03)"><rect x="38.077" y="53.205" width="76.154" height="108.846" rx="16" ry="16" fill="url(#prefix__w)" filter="url(#prefix__x)"/><rect x="38.077" y="53.205" width="76.154" height="108.846" rx="16" ry="16" filter="none" fill="url(#prefix__y)"/></g><g transform="translate(73.462 166.03)"><rect x="38.077" y="53.205" width="76.154" height="108.846" rx="16" ry="16" fill="url(#prefix__z)" filter="url(#prefix__A)"/><rect x="38.077" y="53.205" width="76.154" height="108.846" rx="16" ry="16" filter="none" fill="url(#prefix__B)"/></g><g transform="translate(171.642 166.03)"><rect x="38.077" y="53.205" width="76.154" height="108.846" rx="16" ry="16" fill="url(#prefix__C)" filter="url(#prefix__D)"/><rect x="38.077" y="53.205" width="76.154" height="108.846" rx="16" ry="16" filter="none" fill="url(#prefix__E)"/></g></svg>