<svg viewBox="0 0 300 300" xmlns="http://www.w3.org/2000/svg" xmlns:xlink="http://www.w3.org/1999/xlink"><defs><linearGradient id="prefix__b"><stop stop-color="#1f1f1f"/></linearGradient><linearGradient id="prefix__d" gradientUnits="userSpaceOnUse" x1="76.154" y1="53.205" x2="76.154" y2="162.051" gradientTransform="matrix(.83103 .55622 -.69965 1 88.17 -42.358)" xlink:href="#prefix__a"/><linearGradient id="prefix__a"><stop offset="0" stop-color="#464646"/><stop offset="1"/></linearGradient><linearGradient id="prefix__e" gradientUnits="userSpaceOnUse" x1="76.154" y1="53.205" x2="76.154" y2="162.051" gradientTransform="matrix(.81085 .58525 -.69965 1 89.706 -44.57)" xlink:href="#prefix__a"/><linearGradient id="prefix__f"><stop stop-color="#78909c"/></linearGradient><linearGradient id="prefix__g" gradientUnits="userSpaceOnUse" x1="76.154" y1="53.205" x2="76.154" y2="162.051" gradientTransform="matrix(.83103 .55622 -.69965 1 88.17 -42.358)" xlink:href="#prefix__a"/><linearGradient id="prefix__i" gradientUnits="userSpaceOnUse" x1="76.154" y1="53.205" x2="76.154" y2="162.051" gradientTransform="matrix(.81085 .58525 -.69965 1 89.706 -44.57)" xlink:href="#prefix__a"/><linearGradient id="prefix__j" gradientUnits="userSpaceOnUse" x1="76.154" y1="53.205" x2="76.154" y2="162.051" gradientTransform="matrix(.83103 .55622 -.69965 1 88.17 -42.358)" xlink:href="#prefix__a"/><linearGradient id="prefix__l" gradientUnits="userSpaceOnUse" x1="76.154" y1="53.205" x2="76.154" y2="162.051" gradientTransform="matrix(.81085 .58525 -.69965 1 89.706 -44.57)" xlink:href="#prefix__a"/><linearGradient id="prefix__m" gradientUnits="userSpaceOnUse" x1="76.154" y1="53.205" x2="76.154" y2="162.051" gradientTransform="matrix(.83103 .55622 -.69965 1 88.17 -42.358)" xlink:href="#prefix__a"/><linearGradient id="prefix__o" gradientUnits="userSpaceOnUse" x1="76.154" y1="53.205" x2="76.154" y2="162.051" gradientTransform="matrix(.81085 .58525 -.69965 1 89.706 -44.57)" xlink:href="#prefix__a"/><linearGradient id="prefix__p"><stop stop-color="#7e57c2"/></linearGradient><linearGradient id="prefix__q" gradientUnits="userSpaceOnUse" x1="76.154" y1="53.205" x2="76.154" y2="162.051" gradientTransform="matrix(.83103 .55622 -.69965 1 88.17 -42.358)" xlink:href="#prefix__a"/><linearGradient id="prefix__s" gradientUnits="userSpaceOnUse" x1="76.154" y1="53.205" x2="76.154" y2="162.051" gradientTransform="matrix(.81085 .58525 -.69965 1 89.706 -44.57)" xlink:href="#prefix__a"/><linearGradient id="prefix__t"><stop stop-color="#ff9800"/></linearGradient><linearGradient id="prefix__u" gradientUnits="userSpaceOnUse" x1="76.154" y1="53.205" x2="76.154" y2="162.051" gradientTransform="matrix(.83103 .55622 -.69965 1 88.17 -42.358)" xlink:href="#prefix__a"/><linearGradient id="prefix__w" gradientUnits="userSpaceOnUse" x1="76.154" y1="53.205" x2="76.154" y2="162.051" gradientTransform="matrix(.81085 .58525 -.69965 1 89.706 -44.57)" xlink:href="#prefix__a"/><linearGradient id="prefix__x" gradientUnits="userSpaceOnUse" x1="76.154" y1="53.205" x2="76.154" y2="162.051" gradientTransform="matrix(.83103 .55622 -.69965 1 88.17 -42.358)" xlink:href="#prefix__a"/><linearGradient id="prefix__z" gradientUnits="userSpaceOnUse" x1="76.154" y1="53.205" x2="76.154" y2="162.051" gradientTransform="matrix(.81085 .58525 -.69965 1 89.706 -44.57)" xlink:href="#prefix__a"/><linearGradient id="prefix__A" gradientUnits="userSpaceOnUse" x1="76.154" y1="53.205" x2="76.154" y2="162.051" gradientTransform="matrix(.83103 .55622 -.69965 1 88.17 -42.358)" xlink:href="#prefix__a"/><linearGradient id="prefix__C" gradientUnits="userSpaceOnUse" x1="76.154" y1="53.205" x2="76.154" y2="162.051" gradientTransform="matrix(.81085 .58525 -.69965 1 89.706 -44.57)" xlink:href="#prefix__a"/><linearGradient id="prefix__D" gradientUnits="userSpaceOnUse" x1="76.154" y1="53.205" x2="76.154" y2="162.051" gradientTransform="matrix(.83103 .55622 -.69965 1 88.17 -42.358)" xlink:href="#prefix__a"/><linearGradient id="prefix__F" gradientUnits="userSpaceOnUse" x1="76.154" y1="53.205" x2="76.154" y2="162.051" gradientTransform="matrix(.81085 .58525 -.69965 1 89.706 -44.57)" xlink:href="#prefix__a"/><filter id="prefix__c" x="-500%" y="-500%" width="1000%" height="1000%"><feGaussianBlur in="SourceAlpha" stdDeviation="6"/><feOffset dy="8"/><feComponentTransfer result="offsetblur"><feFuncA type="linear"/></feComponentTransfer><feFlood flood-color="rgba(0,0,0,0.3)"/><feComposite in2="offsetblur" operator="in"/><feMerge><feMergeNode/><feMergeNode in="SourceGraphic"/></feMerge></filter><filter id="prefix__h" x="-500%" y="-500%" width="1000%" height="1000%"><feGaussianBlur in="SourceAlpha" stdDeviation="6"/><feOffset dy="8"/><feComponentTransfer result="offsetblur"><feFuncA type="linear"/></feComponentTransfer><feFlood flood-color="rgba(0,0,0,0.3)"/><feComposite in2="offsetblur" operator="in"/><feMerge><feMergeNode/><feMergeNode in="SourceGraphic"/></feMerge></filter><filter id="prefix__k" x="-500%" y="-500%" width="1000%" height="1000%"><feGaussianBlur in="SourceAlpha" stdDeviation="6"/><feOffset dy="8"/><feComponentTransfer result="offsetblur"><feFuncA type="linear"/></feComponentTransfer><feFlood flood-color="rgba(0,0,0,0.3)"/><feComposite in2="offsetblur" operator="in"/><feMerge><feMergeNode/><feMergeNode in="SourceGraphic"/></feMerge></filter><filter id="prefix__n" x="-500%" y="-500%" width="1000%" height="1000%"><feGaussianBlur in="SourceAlpha" stdDeviation="6"/><feOffset dy="8"/><feComponentTransfer result="offsetblur"><feFuncA type="linear"/></feComponentTransfer><feFlood flood-color="rgba(0,0,0,0.3)"/><feComposite in2="offsetblur" operator="in"/><feMerge><feMergeNode/><feMergeNode in="SourceGraphic"/></feMerge></filter><filter id="prefix__r" x="-500%" y="-500%" width="1000%" height="1000%"><feGaussianBlur in="SourceAlpha" stdDeviation="6"/><feOffset dy="8"/><feComponentTransfer result="offsetblur"><feFuncA type="linear"/></feComponentTransfer><feFlood flood-color="rgba(0,0,0,0.3)"/><feComposite in2="offsetblur" operator="in"/><feMerge><feMergeNode/><feMergeNode in="SourceGraphic"/></feMerge></filter><filter id="prefix__v" x="-500%" y="-500%" width="1000%" height="1000%"><feGaussianBlur in="SourceAlpha" stdDeviation="6"/><feOffset dy="8"/><feComponentTransfer result="offsetblur"><feFuncA type="linear"/></feComponentTransfer><feFlood flood-color="rgba(0,0,0,0.3)"/><feComposite in2="offsetblur" operator="in"/><feMerge><feMergeNode/><feMergeNode in="SourceGraphic"/></feMerge></filter><filter id="prefix__y" x="-500%" y="-500%" width="1000%" height="1000%"><feGaussianBlur in="SourceAlpha" stdDeviation="6"/><feOffset dy="8"/><feComponentTransfer result="offsetblur"><feFuncA type="linear"/></feComponentTransfer><feFlood flood-color="rgba(0,0,0,0.3)"/><feComposite in2="offsetblur" operator="in"/><feMerge><feMergeNode/><feMergeNode in="SourceGraphic"/></feMerge></filter><filter id="prefix__B" x="-500%" y="-500%" width="1000%" height="1000%"><feGaussianBlur in="SourceAlpha" stdDeviation="6"/><feOffset dy="8"/><feComponentTransfer result="offsetblur"><feFuncA type="linear"/></feComponentTransfer><feFlood flood-color="rgba(0,0,0,0.3)"/><feComposite in2="offsetblur" operator="in"/><feMerge><feMergeNode/><feMergeNode in="SourceGraphic"/></feMerge></filter><filter id="prefix__E" x="-500%" y="-500%" width="1000%" height="1000%"><feGaussianBlur in="SourceAlpha" stdDeviation="6"/><feOffset dy="8"/><feComponentTransfer result="offsetblur"><feFuncA type="linear"/></feComponentTransfer><feFlood flood-color="rgba(0,0,0,0.3)"/><feComposite in2="offsetblur" operator="in"/><feMerge><feMergeNode/><feMergeNode in="SourceGraphic"/></feMerge></filter></defs><path fill="url(#prefix__b)" d="M0 0h300v300H0z"/><g transform="translate(-23.31 42.692)"><rect x="38.077" y="53.205" width="76.154" height="108.846" rx="16" ry="16" filter="url(#prefix__c)" fill="url(#prefix__d)"/><rect x="38.077" y="53.205" width="76.154" height="108.846" rx="16" ry="16" filter="none" fill="url(#prefix__e)"/><path d="M77.057 111.993h-4.5c0-1.64.2-2.947.6-3.92.393-.973 1.123-1.93 2.19-2.87 1.06-.947 1.763-1.713 2.11-2.3a3.62 3.62 0 0 0 .53-1.88c0-1.98-.913-2.97-2.74-2.97-.867 0-1.56.267-2.08.8-.527.533-.8 1.27-.82 2.21h-5.1c.027-2.24.75-3.993 2.17-5.26 1.427-1.267 3.37-1.9 5.83-1.9 2.487 0 4.413.603 5.78 1.81 1.373 1.2 2.06 2.897 2.06 5.09 0 .993-.223 1.933-.67 2.82-.447.88-1.227 1.86-2.34 2.94l-1.42 1.35c-.893.86-1.403 1.863-1.53 3.01l-.07 1.07zm-5.01 5.4c0-.787.267-1.433.8-1.94.533-.513 1.217-.77 2.05-.77.833 0 1.517.257 2.05.77.533.507.8 1.153.8 1.94 0 .773-.263 1.413-.79 1.92-.52.5-1.207.75-2.06.75-.86 0-1.55-.25-2.07-.75-.52-.507-.78-1.147-.78-1.92zM49.187 65.051h.19v.93h-.11c-.513.013-.923.147-1.23.4-.313.26-.5.62-.56 1.08.3-.307.68-.46 1.14-.46.493 0 .887.177 1.18.53.293.353.44.817.44 1.39 0 .373-.08.71-.24 1.01-.16.3-.387.533-.68.7-.293.167-.627.25-1 .25-.593 0-1.077-.21-1.45-.63-.367-.413-.55-.967-.55-1.66v-.41c0-.62.117-1.167.35-1.64.233-.467.567-.83 1-1.09.44-.26.947-.393 1.52-.4zm-.91 2.85a.914.914 0 0 0-.5.14.949.949 0 0 0-.33.38v.34c0 .38.077.677.23.89a.71.71 0 0 0 .62.32.72.72 0 0 0 .59-.29c.147-.193.22-.44.22-.74 0-.313-.073-.563-.22-.75a.74.74 0 0 0-.61-.29zm6.49-2.79v.64l-2.2 5.05h-1.19l2.21-4.77h-2.83v-.92h4.01z" style="text-transform:capitalize;white-space:pre" fill="url(#prefix__f)"/></g><g transform="translate(73.462 42.692)"><rect x="38.077" y="53.205" width="76.154" height="108.846" rx="16" ry="16" fill="url(#prefix__g)" filter="url(#prefix__h)"/><rect x="38.077" y="53.205" width="76.154" height="108.846" rx="16" ry="16" filter="none" fill="url(#prefix__i)"/><path d="M78.26 111.607h-4.5c0-1.64.2-2.947.6-3.92.393-.973 1.123-1.93 2.19-2.87 1.06-.947 1.763-1.713 2.11-2.3a3.62 3.62 0 0 0 .53-1.88c0-1.98-.913-2.97-2.74-2.97-.867 0-1.56.267-2.08.8-.527.533-.8 1.27-.82 2.21h-5.1c.027-2.24.75-3.993 2.17-5.26 1.427-1.267 3.37-1.9 5.83-1.9 2.487 0 4.413.603 5.78 1.81 1.373 1.2 2.06 2.897 2.06 5.09 0 .993-.223 1.933-.67 2.82-.447.88-1.227 1.86-2.34 2.94l-1.42 1.35c-.893.86-1.403 1.863-1.53 3.01l-.07 1.07zm-5.01 5.4c0-.787.267-1.433.8-1.94.533-.513 1.217-.77 2.05-.77.833 0 1.517.257 2.05.77.533.507.8 1.153.8 1.94 0 .773-.263 1.413-.79 1.92-.52.5-1.207.75-2.06.75-.86 0-1.55-.25-2.07-.75-.52-.507-.78-1.147-.78-1.92zM49.657 65.111v3.55h.64v.91h-.64v1.23h-1.13v-1.23h-2.33l-.06-.71 2.38-3.75h1.14zm-1.21 1.67-1.18 1.88h1.26v-2.01l-.08.13zm5.8-1.67v3.55h.64v.91h-.64v1.23h-1.13v-1.23h-2.33l-.06-.71 2.38-3.75h1.14zm-1.21 1.67-1.18 1.88h1.26v-2.01l-.08.13z" style="text-transform:capitalize;white-space:pre" fill="url(#prefix__f)"/></g><g transform="translate(171.642 42.692)"><rect x="38.077" y="53.205" width="76.154" height="108.846" rx="16" ry="16" fill="url(#prefix__j)" filter="url(#prefix__k)"/><rect x="38.077" y="53.205" width="76.154" height="108.846" rx="16" ry="16" filter="none" fill="url(#prefix__l)"/><path d="M78.84 112.607h-4.5c0-1.64.2-2.947.6-3.92.393-.973 1.123-1.93 2.19-2.87 1.06-.947 1.763-1.713 2.11-2.3a3.62 3.62 0 0 0 .53-1.88c0-1.98-.913-2.97-2.74-2.97-.867 0-1.56.267-2.08.8-.527.533-.8 1.27-.82 2.21h-5.1c.027-2.24.75-3.993 2.17-5.26 1.427-1.267 3.37-1.9 5.83-1.9 2.487 0 4.413.603 5.78 1.81 1.373 1.2 2.06 2.897 2.06 5.09 0 .993-.223 1.933-.67 2.82-.447.88-1.227 1.86-2.34 2.94l-1.42 1.35c-.893.86-1.403 1.863-1.53 3.01l-.07 1.07zm-5.01 5.4c0-.787.267-1.433.8-1.94.533-.513 1.217-.77 2.05-.77.833 0 1.517.257 2.05.77.533.507.8 1.153.8 1.94 0 .773-.263 1.413-.79 1.92-.52.5-1.207.75-2.06.75-.86 0-1.55-.25-2.07-.75-.52-.507-.78-1.147-.78-1.92zM49.057 65.101v5.7h-1.13v-4.35l-1.35.42v-.92l2.36-.85h.12zm4.72-.05h.19v.93h-.11c-.513.013-.923.147-1.23.4-.313.26-.5.62-.56 1.08.3-.307.68-.46 1.14-.46.493 0 .887.177 1.18.53.293.353.44.817.44 1.39 0 .373-.08.71-.24 1.01-.16.3-.387.533-.68.7-.293.167-.627.25-1 .25-.593 0-1.077-.21-1.45-.63-.367-.413-.55-.967-.55-1.66v-.41c0-.62.117-1.167.35-1.64.233-.467.567-.83 1-1.09.44-.26.947-.393 1.52-.4zm-.91 2.85a.914.914 0 0 0-.5.14.949.949 0 0 0-.33.38v.34c0 .38.077.677.23.89a.71.71 0 0 0 .62.32.72.72 0 0 0 .59-.29c.147-.193.22-.44.22-.74 0-.313-.073-.563-.22-.75a.74.74 0 0 0-.61-.29z" style="text-transform:capitalize;white-space:pre" fill="url(#prefix__f)"/></g><g transform="translate(-23.31 -83.38)"><rect x="38.077" y="53.205" width="76.154" height="108.846" rx="16" ry="16" fill="url(#prefix__m)" filter="url(#prefix__n)"/><rect x="38.077" y="53.205" width="76.154" height="108.846" rx="16" ry="16" filter="none" fill="url(#prefix__o)"/></g><g transform="translate(73.462 -83.38)"><rect x="38.077" y="53.205" width="76.154" height="108.846" rx="16" ry="16" fill="url(#prefix__q)" filter="url(#prefix__r)"/><rect x="38.077" y="53.205" width="76.154" height="108.846" rx="16" ry="16" filter="none" fill="url(#prefix__s)"/></g><g transform="translate(171.642 -83.38)"><rect x="38.077" y="53.205" width="76.154" height="108.846" rx="16" ry="16" fill="url(#prefix__u)" filter="url(#prefix__v)"/><rect x="38.077" y="53.205" width="76.154" height="108.846" rx="16" ry="16" filter="none" fill="url(#prefix__w)"/></g><g transform="translate(0 249.408)"><g transform="translate(-23.31 -83.38)"><rect x="38.077" y="53.205" width="76.154" height="108.846" rx="16" ry="16" fill="url(#prefix__x)" filter="url(#prefix__y)"/><rect x="38.077" y="53.205" width="76.154" height="108.846" rx="16" ry="16" filter="none" fill="url(#prefix__z)"/></g><g transform="translate(73.462 -83.38)"><rect x="38.077" y="53.205" width="76.154" height="108.846" rx="16" ry="16" fill="url(#prefix__A)" filter="url(#prefix__B)"/><rect x="38.077" y="53.205" width="76.154" height="108.846" rx="16" ry="16" filter="none" fill="url(#prefix__C)"/></g><g transform="translate(171.642 -83.38)"><rect x="38.077" y="53.205" width="76.154" height="108.846" rx="16" ry="16" fill="url(#prefix__D)" filter="url(#prefix__E)"/><rect x="38.077" y="53.205" width="76.154" height="108.846" rx="16" ry="16" filter="none" fill="url(#prefix__F)"/></g></g></svg>