<svg viewBox="0 0 300 300" xmlns="http://www.w3.org/2000/svg" xmlns:xlink="http://www.w3.org/1999/xlink"><defs><linearGradient id="prefix__b"><stop stop-color="#1f1f1f"/></linearGradient><linearGradient id="prefix__d" gradientUnits="userSpaceOnUse" x1="76.154" y1="53.205" x2="76.154" y2="162.051" gradientTransform="matrix(.83103 .55622 -.69965 1 88.17 -42.358)" xlink:href="#prefix__a"/><linearGradient id="prefix__a"><stop offset="0" stop-color="#464646"/><stop offset="1"/></linearGradient><linearGradient id="prefix__e" gradientUnits="userSpaceOnUse" x1="76.154" y1="53.205" x2="76.154" y2="162.051" gradientTransform="matrix(.81085 .58525 -.69965 1 89.706 -44.57)" xlink:href="#prefix__a"/><linearGradient id="prefix__f"><stop stop-color="#78909c"/></linearGradient><linearGradient id="prefix__g" gradientUnits="userSpaceOnUse" x1="76.154" y1="53.205" x2="76.154" y2="162.051" gradientTransform="matrix(.83103 .55622 -.69965 1 88.17 -42.358)" xlink:href="#prefix__a"/><linearGradient id="prefix__i" gradientUnits="userSpaceOnUse" x1="76.154" y1="53.205" x2="76.154" y2="162.051" gradientTransform="matrix(.81085 .58525 -.69965 1 89.706 -44.57)" xlink:href="#prefix__a"/><linearGradient id="prefix__j" gradientUnits="userSpaceOnUse" x1="76.154" y1="53.205" x2="76.154" y2="162.051" gradientTransform="matrix(.83103 .55622 -.69965 1 88.17 -42.358)" xlink:href="#prefix__a"/><linearGradient id="prefix__l" gradientUnits="userSpaceOnUse" x1="76.154" y1="53.205" x2="76.154" y2="162.051" gradientTransform="matrix(.81085 .58525 -.69965 1 89.706 -44.57)" xlink:href="#prefix__a"/><linearGradient id="prefix__m" gradientUnits="userSpaceOnUse" x1="76.154" y1="53.205" x2="76.154" y2="162.051" gradientTransform="matrix(.83103 .55622 -.69965 1 88.17 -42.358)" xlink:href="#prefix__a"/><linearGradient id="prefix__o" gradientUnits="userSpaceOnUse" x1="76.154" y1="53.205" x2="76.154" y2="162.051" gradientTransform="matrix(.81085 .58525 -.69965 1 89.706 -44.57)" xlink:href="#prefix__a"/><linearGradient id="prefix__p"><stop stop-color="#7e57c2"/></linearGradient><linearGradient id="prefix__q" gradientUnits="userSpaceOnUse" x1="76.154" y1="53.205" x2="76.154" y2="162.051" gradientTransform="matrix(.83103 .55622 -.69965 1 88.17 -42.358)" xlink:href="#prefix__a"/><linearGradient id="prefix__s" gradientUnits="userSpaceOnUse" x1="76.154" y1="53.205" x2="76.154" y2="162.051" gradientTransform="matrix(.81085 .58525 -.69965 1 89.706 -44.57)" xlink:href="#prefix__a"/><linearGradient id="prefix__t"><stop stop-color="#ff9800"/></linearGradient><linearGradient id="prefix__u" gradientUnits="userSpaceOnUse" x1="76.154" y1="53.205" x2="76.154" y2="162.051" gradientTransform="matrix(.83103 .55622 -.69965 1 88.17 -42.358)" xlink:href="#prefix__a"/><linearGradient id="prefix__w" gradientUnits="userSpaceOnUse" x1="76.154" y1="53.205" x2="76.154" y2="162.051" gradientTransform="matrix(.81085 .58525 -.69965 1 89.706 -44.57)" xlink:href="#prefix__a"/><linearGradient id="prefix__x" gradientUnits="userSpaceOnUse" x1="76.154" y1="53.205" x2="76.154" y2="162.051" gradientTransform="matrix(.83103 .55622 -.69965 1 88.17 -42.358)" xlink:href="#prefix__a"/><linearGradient id="prefix__z" gradientUnits="userSpaceOnUse" x1="76.154" y1="53.205" x2="76.154" y2="162.051" gradientTransform="matrix(.81085 .58525 -.69965 1 89.706 -44.57)" xlink:href="#prefix__a"/><linearGradient id="prefix__A" gradientUnits="userSpaceOnUse" x1="76.154" y1="53.205" x2="76.154" y2="162.051" gradientTransform="matrix(.83103 .55622 -.69965 1 88.17 -42.358)" xlink:href="#prefix__a"/><linearGradient id="prefix__C" gradientUnits="userSpaceOnUse" x1="76.154" y1="53.205" x2="76.154" y2="162.051" gradientTransform="matrix(.81085 .58525 -.69965 1 89.706 -44.57)" xlink:href="#prefix__a"/><linearGradient id="prefix__D" gradientUnits="userSpaceOnUse" x1="76.154" y1="53.205" x2="76.154" y2="162.051" gradientTransform="matrix(.83103 .55622 -.69965 1 88.17 -42.358)" xlink:href="#prefix__a"/><linearGradient id="prefix__F" gradientUnits="userSpaceOnUse" x1="76.154" y1="53.205" x2="76.154" y2="162.051" gradientTransform="matrix(.81085 .58525 -.69965 1 89.706 -44.57)" xlink:href="#prefix__a"/><filter id="prefix__c" x="-500%" y="-500%" width="1000%" height="1000%"><feGaussianBlur in="SourceAlpha" stdDeviation="6"/><feOffset dy="8"/><feComponentTransfer result="offsetblur"><feFuncA type="linear"/></feComponentTransfer><feFlood flood-color="rgba(0,0,0,0.3)"/><feComposite in2="offsetblur" operator="in"/><feMerge><feMergeNode/><feMergeNode in="SourceGraphic"/></feMerge></filter><filter id="prefix__h" x="-500%" y="-500%" width="1000%" height="1000%"><feGaussianBlur in="SourceAlpha" stdDeviation="6"/><feOffset dy="8"/><feComponentTransfer result="offsetblur"><feFuncA type="linear"/></feComponentTransfer><feFlood flood-color="rgba(0,0,0,0.3)"/><feComposite in2="offsetblur" operator="in"/><feMerge><feMergeNode/><feMergeNode in="SourceGraphic"/></feMerge></filter><filter id="prefix__k" x="-500%" y="-500%" width="1000%" height="1000%"><feGaussianBlur in="SourceAlpha" stdDeviation="6"/><feOffset dy="8"/><feComponentTransfer result="offsetblur"><feFuncA type="linear"/></feComponentTransfer><feFlood flood-color="rgba(0,0,0,0.3)"/><feComposite in2="offsetblur" operator="in"/><feMerge><feMergeNode/><feMergeNode in="SourceGraphic"/></feMerge></filter><filter id="prefix__n" x="-500%" y="-500%" width="1000%" height="1000%"><feGaussianBlur in="SourceAlpha" stdDeviation="6"/><feOffset dy="8"/><feComponentTransfer result="offsetblur"><feFuncA type="linear"/></feComponentTransfer><feFlood flood-color="rgba(0,0,0,0.3)"/><feComposite in2="offsetblur" operator="in"/><feMerge><feMergeNode/><feMergeNode in="SourceGraphic"/></feMerge></filter><filter id="prefix__r" x="-500%" y="-500%" width="1000%" height="1000%"><feGaussianBlur in="SourceAlpha" stdDeviation="6"/><feOffset dy="8"/><feComponentTransfer result="offsetblur"><feFuncA type="linear"/></feComponentTransfer><feFlood flood-color="rgba(0,0,0,0.3)"/><feComposite in2="offsetblur" operator="in"/><feMerge><feMergeNode/><feMergeNode in="SourceGraphic"/></feMerge></filter><filter id="prefix__v" x="-500%" y="-500%" width="1000%" height="1000%"><feGaussianBlur in="SourceAlpha" stdDeviation="6"/><feOffset dy="8"/><feComponentTransfer result="offsetblur"><feFuncA type="linear"/></feComponentTransfer><feFlood flood-color="rgba(0,0,0,0.3)"/><feComposite in2="offsetblur" operator="in"/><feMerge><feMergeNode/><feMergeNode in="SourceGraphic"/></feMerge></filter><filter id="prefix__y" x="-500%" y="-500%" width="1000%" height="1000%"><feGaussianBlur in="SourceAlpha" stdDeviation="6"/><feOffset dy="8"/><feComponentTransfer result="offsetblur"><feFuncA type="linear"/></feComponentTransfer><feFlood flood-color="rgba(0,0,0,0.3)"/><feComposite in2="offsetblur" operator="in"/><feMerge><feMergeNode/><feMergeNode in="SourceGraphic"/></feMerge></filter><filter id="prefix__B" x="-500%" y="-500%" width="1000%" height="1000%"><feGaussianBlur in="SourceAlpha" stdDeviation="6"/><feOffset dy="8"/><feComponentTransfer result="offsetblur"><feFuncA type="linear"/></feComponentTransfer><feFlood flood-color="rgba(0,0,0,0.3)"/><feComposite in2="offsetblur" operator="in"/><feMerge><feMergeNode/><feMergeNode in="SourceGraphic"/></feMerge></filter><filter id="prefix__E" x="-500%" y="-500%" width="1000%" height="1000%"><feGaussianBlur in="SourceAlpha" stdDeviation="6"/><feOffset dy="8"/><feComponentTransfer result="offsetblur"><feFuncA type="linear"/></feComponentTransfer><feFlood flood-color="rgba(0,0,0,0.3)"/><feComposite in2="offsetblur" operator="in"/><feMerge><feMergeNode/><feMergeNode in="SourceGraphic"/></feMerge></filter></defs><path fill="url(#prefix__b)" d="M0 0h300v300H0z"/><g transform="translate(-23.31 42.692)"><rect x="38.077" y="53.205" width="76.154" height="108.846" rx="16" ry="16" filter="url(#prefix__c)" fill="url(#prefix__d)"/><rect x="38.077" y="53.205" width="76.154" height="108.846" rx="16" ry="16" filter="none" fill="url(#prefix__e)"/></g><path d="M62.326 139.805a1.604 1.604 0 0 0-2.271 0l-7.874 7.859-7.875-7.875a1.603 1.603 0 0 0-2.27 0 1.602 1.602 0 0 0 0 2.271l7.874 7.874-7.874 7.875a1.601 1.601 0 0 0 0 2.27 1.601 1.601 0 0 0 2.27 0l7.875-7.874 7.874 7.874a1.602 1.602 0 0 0 2.271 0 1.603 1.603 0 0 0 0-2.27l-7.875-7.875 7.875-7.874a1.614 1.614 0 0 0 0-2.255z" stroke-width="2" fill="#da3636" stroke="#da3636"/><g transform="translate(73.462 42.692)"><rect x="38.077" y="53.205" width="76.154" height="108.846" rx="16" ry="16" fill="url(#prefix__g)" filter="url(#prefix__h)"/><rect x="38.077" y="53.205" width="76.154" height="108.846" rx="16" ry="16" filter="none" fill="url(#prefix__i)"/><path d="M78.26 111.607h-4.5c0-1.64.2-2.947.6-3.92.393-.973 1.123-1.93 2.19-2.87 1.06-.947 1.763-1.713 2.11-2.3a3.62 3.62 0 0 0 .53-1.88c0-1.98-.913-2.97-2.74-2.97-.867 0-1.56.267-2.08.8-.527.533-.8 1.27-.82 2.21h-5.1c.027-2.24.75-3.993 2.17-5.26 1.427-1.267 3.37-1.9 5.83-1.9 2.487 0 4.413.603 5.78 1.81 1.373 1.2 2.06 2.897 2.06 5.09 0 .993-.223 1.933-.67 2.82-.447.88-1.227 1.86-2.34 2.94l-1.42 1.35c-.893.86-1.403 1.863-1.53 3.01l-.07 1.07zm-5.01 5.4c0-.787.267-1.433.8-1.94.533-.513 1.217-.77 2.05-.77.833 0 1.517.257 2.05.77.533.507.8 1.153.8 1.94 0 .773-.263 1.413-.79 1.92-.52.5-1.207.75-2.06.75-.86 0-1.55-.25-2.07-.75-.52-.507-.78-1.147-.78-1.92z" style="text-transform:capitalize;white-space:pre" fill="url(#prefix__f)"/></g><g transform="translate(171.642 42.692)"><rect x="38.077" y="53.205" width="76.154" height="108.846" rx="16" ry="16" fill="url(#prefix__j)" filter="url(#prefix__k)"/><rect x="38.077" y="53.205" width="76.154" height="108.846" rx="16" ry="16" filter="none" fill="url(#prefix__l)"/><path d="M0 0h24v24H0V0z" fill="none" transform="translate(61.637 119.128)"/><path d="m73.652 112.78-6.386-6.386a1.797 1.797 0 0 0-2.555 0 1.797 1.797 0 0 0 0 2.555l7.645 7.645a1.819 1.819 0 0 0 2.573 0L94.27 97.271a1.794 1.794 0 0 0 0-2.554 1.794 1.794 0 0 0-2.554 0L73.652 112.78z" fill="#53ba57" stroke="#53ba57" stroke-width="2"/></g><g transform="translate(-23.31 -83.38)"><rect x="38.077" y="53.205" width="76.154" height="108.846" rx="16" ry="16" fill="url(#prefix__m)" filter="url(#prefix__n)"/><rect x="38.077" y="53.205" width="76.154" height="108.846" rx="16" ry="16" filter="none" fill="url(#prefix__o)"/></g><g transform="translate(73.462 -83.38)"><rect x="38.077" y="53.205" width="76.154" height="108.846" rx="16" ry="16" fill="url(#prefix__q)" filter="url(#prefix__r)"/><rect x="38.077" y="53.205" width="76.154" height="108.846" rx="16" ry="16" filter="none" fill="url(#prefix__s)"/></g><g transform="translate(171.642 -83.38)"><rect x="38.077" y="53.205" width="76.154" height="108.846" rx="16" ry="16" fill="url(#prefix__u)" filter="url(#prefix__v)"/><rect x="38.077" y="53.205" width="76.154" height="108.846" rx="16" ry="16" filter="none" fill="url(#prefix__w)"/></g><g transform="translate(0 249.408)"><g transform="translate(-23.31 -83.38)"><rect x="38.077" y="53.205" width="76.154" height="108.846" rx="16" ry="16" fill="url(#prefix__x)" filter="url(#prefix__y)"/><rect x="38.077" y="53.205" width="76.154" height="108.846" rx="16" ry="16" filter="none" fill="url(#prefix__z)"/></g><g transform="translate(73.462 -83.38)"><rect x="38.077" y="53.205" width="76.154" height="108.846" rx="16" ry="16" fill="url(#prefix__A)" filter="url(#prefix__B)"/><rect x="38.077" y="53.205" width="76.154" height="108.846" rx="16" ry="16" filter="none" fill="url(#prefix__C)"/></g><g transform="translate(171.642 -83.38)"><rect x="38.077" y="53.205" width="76.154" height="108.846" rx="16" ry="16" fill="url(#prefix__D)" filter="url(#prefix__E)"/><rect x="38.077" y="53.205" width="76.154" height="108.846" rx="16" ry="16" filter="none" fill="url(#prefix__F)"/></g></g></svg>