<svg viewBox="0 0 300 300" xmlns="http://www.w3.org/2000/svg" xmlns:xlink="http://www.w3.org/1999/xlink"><defs><linearGradient id="prefix__b"><stop stop-color="#1f1f1f"/></linearGradient><linearGradient id="prefix__d" gradientUnits="userSpaceOnUse" x1="76.154" y1="53.205" x2="76.154" y2="162.051" gradientTransform="matrix(.83103 .55622 -.69965 1 88.17 -42.358)" xlink:href="#prefix__a"/><linearGradient id="prefix__a"><stop offset="0" stop-color="#464646"/><stop offset="1"/></linearGradient><linearGradient id="prefix__f" gradientUnits="userSpaceOnUse" x1="76.154" y1="53.205" x2="76.154" y2="162.051" gradientTransform="matrix(.81085 .58525 -.69965 1 89.706 -44.57)" xlink:href="#prefix__a"/><linearGradient id="prefix__g"><stop stop-color="#42a5f5"/></linearGradient><linearGradient id="prefix__i" gradientUnits="userSpaceOnUse" x1="76.154" y1="53.205" x2="76.154" y2="162.051" gradientTransform="matrix(.83103 .55622 -.69965 1 88.17 -42.358)" xlink:href="#prefix__a"/><linearGradient id="prefix__k" gradientUnits="userSpaceOnUse" x1="76.154" y1="53.205" x2="76.154" y2="162.051" gradientTransform="matrix(.81085 .58525 -.69965 1 89.706 -44.57)" xlink:href="#prefix__a"/><linearGradient id="prefix__l"><stop stop-color="#7e57c2"/></linearGradient><linearGradient id="prefix__m" gradientUnits="userSpaceOnUse" x1="76.154" y1="53.205" x2="76.154" y2="162.051" gradientTransform="matrix(.83103 .55622 -.69965 1 88.17 -42.358)" xlink:href="#prefix__a"/><linearGradient id="prefix__o" gradientUnits="userSpaceOnUse" x1="76.154" y1="53.205" x2="76.154" y2="162.051" gradientTransform="matrix(.81085 .58525 -.69965 1 89.706 -44.57)" xlink:href="#prefix__a"/><linearGradient id="prefix__p"><stop stop-color="#ff9800"/></linearGradient><linearGradient id="prefix__q" gradientUnits="userSpaceOnUse" x1="76.154" y1="53.205" x2="76.154" y2="162.051" gradientTransform="matrix(.83103 .55622 -.69965 1 88.17 -42.358)" xlink:href="#prefix__a"/><linearGradient id="prefix__s" gradientUnits="userSpaceOnUse" x1="76.154" y1="53.205" x2="76.154" y2="162.051" gradientTransform="matrix(.81085 .58525 -.69965 1 89.706 -44.57)" xlink:href="#prefix__a"/><linearGradient id="prefix__t" gradientUnits="userSpaceOnUse" x1="76.154" y1="53.205" x2="76.154" y2="162.051" gradientTransform="matrix(.83103 .55622 -.69965 1 88.17 -42.358)" xlink:href="#prefix__a"/><linearGradient id="prefix__v" gradientUnits="userSpaceOnUse" x1="76.154" y1="53.205" x2="76.154" y2="162.051" gradientTransform="matrix(.81085 .58525 -.69965 1 89.706 -44.57)" xlink:href="#prefix__a"/><linearGradient id="prefix__w" gradientUnits="userSpaceOnUse" x1="76.154" y1="53.205" x2="76.154" y2="162.051" gradientTransform="matrix(.83103 .55622 -.69965 1 88.17 -42.358)" xlink:href="#prefix__a"/><linearGradient id="prefix__y" gradientUnits="userSpaceOnUse" x1="76.154" y1="53.205" x2="76.154" y2="162.051" gradientTransform="matrix(.81085 .58525 -.69965 1 89.706 -44.57)" xlink:href="#prefix__a"/><linearGradient id="prefix__z" gradientUnits="userSpaceOnUse" x1="76.154" y1="53.205" x2="76.154" y2="162.051" gradientTransform="matrix(.83103 .55622 -.69965 1 88.17 -42.358)" xlink:href="#prefix__a"/><linearGradient id="prefix__B" gradientUnits="userSpaceOnUse" x1="76.154" y1="53.205" x2="76.154" y2="162.051" gradientTransform="matrix(.81085 .58525 -.69965 1 89.706 -44.57)" xlink:href="#prefix__a"/><linearGradient id="prefix__C" gradientUnits="userSpaceOnUse" x1="76.154" y1="53.205" x2="76.154" y2="162.051" gradientTransform="matrix(.83103 .55622 -.69965 1 88.17 -42.358)" xlink:href="#prefix__a"/><linearGradient id="prefix__E" gradientUnits="userSpaceOnUse" x1="76.154" y1="53.205" x2="76.154" y2="162.051" gradientTransform="matrix(-.83537 .54969 -.69965 -1 215.073 173.395)" xlink:href="#prefix__a"/><linearGradient id="prefix__F"><stop stop-color="#78909c"/></linearGradient><linearGradient id="prefix__G" gradientUnits="userSpaceOnUse" x1="76.154" y1="53.205" x2="76.154" y2="162.051" gradientTransform="matrix(.83103 .55622 -.69965 1 88.17 -42.358)" xlink:href="#prefix__a"/><linearGradient id="prefix__I" gradientUnits="userSpaceOnUse" x1="76.154" y1="53.205" x2="76.154" y2="162.051" gradientTransform="matrix(-.83537 .54969 -.69965 -1 215.073 173.395)" xlink:href="#prefix__a"/><linearGradient id="prefix__J" gradientUnits="userSpaceOnUse" x1="76.154" y1="53.205" x2="76.154" y2="162.051" gradientTransform="matrix(.83103 .55622 -.69965 1 88.17 -42.358)" xlink:href="#prefix__a"/><linearGradient id="prefix__L" gradientUnits="userSpaceOnUse" x1="76.154" y1="53.205" x2="76.154" y2="162.051" gradientTransform="matrix(-.83537 .54969 -.69965 -1 215.073 173.395)" xlink:href="#prefix__a"/><linearGradient id="prefix__M" gradientUnits="userSpaceOnUse" x1="76.154" y1="53.205" x2="76.154" y2="162.051" gradientTransform="matrix(.83103 .55622 -.69965 1 88.17 -42.358)" xlink:href="#prefix__a"/><linearGradient id="prefix__O" gradientUnits="userSpaceOnUse" x1="76.154" y1="53.205" x2="76.154" y2="162.051" gradientTransform="matrix(-.83537 .54969 -.69965 -1 215.073 173.395)" xlink:href="#prefix__a"/><filter id="prefix__c" x="-500%" y="-500%" width="1000%" height="1000%"><feGaussianBlur in="SourceAlpha" stdDeviation="6"/><feOffset dy="8"/><feComponentTransfer result="offsetblur"><feFuncA type="linear"/></feComponentTransfer><feFlood flood-color="rgba(0,0,0,0.3)"/><feComposite in2="offsetblur" operator="in"/><feMerge><feMergeNode/><feMergeNode in="SourceGraphic"/></feMerge></filter><filter id="prefix__e" x="-500%" y="-500%" width="1000%" height="1000%"><feGaussianBlur in="SourceAlpha" stdDeviation="6"/><feOffset dy="8"/><feComponentTransfer result="offsetblur"><feFuncA type="linear"/></feComponentTransfer><feFlood flood-color="rgba(0,0,0,0.3)"/><feComposite in2="offsetblur" operator="in"/><feMerge><feMergeNode/><feMergeNode in="SourceGraphic"/></feMerge></filter><filter id="prefix__h" x="-500%" y="-500%" width="1000%" height="1000%"><feGaussianBlur in="SourceAlpha" stdDeviation="6"/><feOffset dy="8"/><feComponentTransfer result="offsetblur"><feFuncA type="linear"/></feComponentTransfer><feFlood flood-color="rgba(0,0,0,0.3)"/><feComposite in2="offsetblur" operator="in"/><feMerge><feMergeNode/><feMergeNode in="SourceGraphic"/></feMerge></filter><filter id="prefix__j" x="-500%" y="-500%" width="1000%" height="1000%"><feGaussianBlur in="SourceAlpha" stdDeviation="6"/><feOffset dy="8"/><feComponentTransfer result="offsetblur"><feFuncA type="linear"/></feComponentTransfer><feFlood flood-color="rgba(0,0,0,0.3)"/><feComposite in2="offsetblur" operator="in"/><feMerge><feMergeNode/><feMergeNode in="SourceGraphic"/></feMerge></filter><filter id="prefix__n" x="-500%" y="-500%" width="1000%" height="1000%"><feGaussianBlur in="SourceAlpha" stdDeviation="6"/><feOffset dy="8"/><feComponentTransfer result="offsetblur"><feFuncA type="linear"/></feComponentTransfer><feFlood flood-color="rgba(0,0,0,0.3)"/><feComposite in2="offsetblur" operator="in"/><feMerge><feMergeNode/><feMergeNode in="SourceGraphic"/></feMerge></filter><filter id="prefix__r" x="-500%" y="-500%" width="1000%" height="1000%"><feGaussianBlur in="SourceAlpha" stdDeviation="6"/><feOffset dy="8"/><feComponentTransfer result="offsetblur"><feFuncA type="linear"/></feComponentTransfer><feFlood flood-color="rgba(0,0,0,0.3)"/><feComposite in2="offsetblur" operator="in"/><feMerge><feMergeNode/><feMergeNode in="SourceGraphic"/></feMerge></filter><filter id="prefix__u" x="-500%" y="-500%" width="1000%" height="1000%"><feGaussianBlur in="SourceAlpha" stdDeviation="6"/><feOffset dy="8"/><feComponentTransfer result="offsetblur"><feFuncA type="linear"/></feComponentTransfer><feFlood flood-color="rgba(0,0,0,0.3)"/><feComposite in2="offsetblur" operator="in"/><feMerge><feMergeNode/><feMergeNode in="SourceGraphic"/></feMerge></filter><filter id="prefix__x" x="-500%" y="-500%" width="1000%" height="1000%"><feGaussianBlur in="SourceAlpha" stdDeviation="6"/><feOffset dy="8"/><feComponentTransfer result="offsetblur"><feFuncA type="linear"/></feComponentTransfer><feFlood flood-color="rgba(0,0,0,0.3)"/><feComposite in2="offsetblur" operator="in"/><feMerge><feMergeNode/><feMergeNode in="SourceGraphic"/></feMerge></filter><filter id="prefix__A" x="-500%" y="-500%" width="1000%" height="1000%"><feGaussianBlur in="SourceAlpha" stdDeviation="6"/><feOffset dy="8"/><feComponentTransfer result="offsetblur"><feFuncA type="linear"/></feComponentTransfer><feFlood flood-color="rgba(0,0,0,0.3)"/><feComposite in2="offsetblur" operator="in"/><feMerge><feMergeNode/><feMergeNode in="SourceGraphic"/></feMerge></filter><filter id="prefix__D" x="-500%" y="-500%" width="1000%" height="1000%"><feGaussianBlur in="SourceAlpha" stdDeviation="6"/><feOffset dy="8"/><feComponentTransfer result="offsetblur"><feFuncA type="linear"/></feComponentTransfer><feFlood flood-color="rgba(0,0,0,0.3)"/><feComposite in2="offsetblur" operator="in"/><feMerge><feMergeNode/><feMergeNode in="SourceGraphic"/></feMerge></filter><filter id="prefix__H" x="-500%" y="-500%" width="1000%" height="1000%"><feGaussianBlur in="SourceAlpha" stdDeviation="6"/><feOffset dy="8"/><feComponentTransfer result="offsetblur"><feFuncA type="linear"/></feComponentTransfer><feFlood flood-color="rgba(0,0,0,0.3)"/><feComposite in2="offsetblur" operator="in"/><feMerge><feMergeNode/><feMergeNode in="SourceGraphic"/></feMerge></filter><filter id="prefix__K" x="-500%" y="-500%" width="1000%" height="1000%"><feGaussianBlur in="SourceAlpha" stdDeviation="6"/><feOffset dy="8"/><feComponentTransfer result="offsetblur"><feFuncA type="linear"/></feComponentTransfer><feFlood flood-color="rgba(0,0,0,0.3)"/><feComposite in2="offsetblur" operator="in"/><feMerge><feMergeNode/><feMergeNode in="SourceGraphic"/></feMerge></filter><filter id="prefix__N" x="-500%" y="-500%" width="1000%" height="1000%"><feGaussianBlur in="SourceAlpha" stdDeviation="6"/><feOffset dy="8"/><feComponentTransfer result="offsetblur"><feFuncA type="linear"/></feComponentTransfer><feFlood flood-color="rgba(0,0,0,0.3)"/><feComposite in2="offsetblur" operator="in"/><feMerge><feMergeNode/><feMergeNode in="SourceGraphic"/></feMerge></filter><filter id="prefix__P" x="-500%" y="-500%" width="1000%" height="1000%"><feGaussianBlur in="SourceAlpha" stdDeviation="16"/><feOffset dy="10"/><feComponentTransfer result="offsetblur"><feFuncA type="linear"/></feComponentTransfer><feFlood flood-color="rgba(0,0,0,0.3)"/><feComposite in2="offsetblur" operator="in"/><feMerge><feMergeNode/><feMergeNode in="SourceGraphic"/></feMerge></filter><filter id="prefix__Q" x="-500%" y="-500%" width="1000%" height="1000%"><feGaussianBlur in="SourceAlpha" stdDeviation="16"/><feOffset dy="10"/><feComponentTransfer result="offsetblur"><feFuncA type="linear"/></feComponentTransfer><feFlood flood-color="rgba(0,0,0,0.3)"/><feComposite in2="offsetblur" operator="in"/><feMerge><feMergeNode/><feMergeNode in="SourceGraphic"/></feMerge></filter></defs><path fill="url(#prefix__b)" d="M0 0h300v300H0z"/><g transform="translate(0 -30)"><g transform="translate(-23.31 -83.38)"><rect x="38.077" y="53.205" width="76.154" height="108.846" rx="16" ry="16" fill="url(#prefix__i)" filter="url(#prefix__j)"/><rect x="38.077" y="53.205" width="76.154" height="108.846" rx="16" ry="16" filter="none" fill="url(#prefix__k)"/></g><g transform="translate(73.462 -83.38)"><rect x="38.077" y="53.205" width="76.154" height="108.846" rx="16" ry="16" fill="url(#prefix__m)" filter="url(#prefix__n)"/><rect x="38.077" y="53.205" width="76.154" height="108.846" rx="16" ry="16" filter="none" fill="url(#prefix__o)"/></g><g transform="translate(171.642 -83.38)"><rect x="38.077" y="53.205" width="76.154" height="108.846" rx="16" ry="16" fill="url(#prefix__q)" filter="url(#prefix__r)"/><rect x="38.077" y="53.205" width="76.154" height="108.846" rx="16" ry="16" filter="none" fill="url(#prefix__s)"/></g></g><g transform="translate(0 279.409)"><g transform="translate(-23.31 -83.38)"><rect x="38.077" y="53.205" width="76.154" height="108.846" rx="16" ry="16" fill="url(#prefix__t)" filter="url(#prefix__u)"/><rect x="38.077" y="53.205" width="76.154" height="108.846" rx="16" ry="16" filter="none" fill="url(#prefix__v)"/></g><g transform="translate(73.462 -83.38)"><rect x="38.077" y="53.205" width="76.154" height="108.846" rx="16" ry="16" fill="url(#prefix__w)" filter="url(#prefix__x)"/><rect x="38.077" y="53.205" width="76.154" height="108.846" rx="16" ry="16" filter="none" fill="url(#prefix__y)"/></g><g transform="translate(171.642 -83.38)"><rect x="38.077" y="53.205" width="76.154" height="108.846" rx="16" ry="16" fill="url(#prefix__z)" filter="url(#prefix__A)"/><rect x="38.077" y="53.205" width="76.154" height="108.846" rx="16" ry="16" filter="none" fill="url(#prefix__B)"/></g></g><path fill="#d8d8d8" d="m158.137 99.125 77.153-26.263 38.627 113.47-77.153 26.264z"/><path fill="#d8d8d8" d="m161.519 92.647 80.441-13.093 19.256 118.309-80.442 13.092z"/><path fill="#d8d8d8" filter="url(#prefix__P)" d="M174.008 86.594h81.5v119.865h-81.5z"/><path d="M184.866 102.345c-.672 3.359-.311 6.076 1.533 7.92 1.872 1.872 6.473-2.47 7.153-2.81.416-.208 2.119-1.203 2.555-.767 1.288 1.288 6.276 5.221 8.942 2.555 1.022-1.022 4.344.255 5.365-.766.783-.783 3.766-.189 4.599-1.022 1.603-1.603 5.574 2.09 7.154.511.987-.987 2.677-2.167 3.577-3.066.655-.656 4.081 1.529 4.598 1.788.737.368 3.751.767 4.344.767.46 0 2.536-.275 2.81 0 1.642 1.641 5.711 1.277 7.409 1.277M184.099 120.484c1.728 4.32 5.846 3.066 10.475 3.066 1.301 0 4.228.569 5.366 0 1.295-.647 3.333.378 4.598-.255 2.054-1.027 6.804-1.022 9.198-1.022 1.159 0 3.962-.382 4.599.255 1.192 1.193 5.45-.681 6.642.511.382.382 3.225 0 3.833 0 1.354 0 3.864.799 4.598 1.533.197.197 2.482-.182 2.555-.255 1.174-1.174 1.914-3.066 4.343-3.066M184.866 134.792c-.101.403-1.319 2.257-.767 2.81 1.126 1.126 6.557.043 7.665-.511.371-.185 2.253-.813 2.555-.511 4.088 4.089 20.086 2.397 24.016-1.533.394-.394 2.709.077 3.065.256 2.044 1.021 4.348 1.025 5.877 2.555.188.188 1.927 1.788 2.043 1.788M183.588 148.077c.481 2.881 1.02 7.918 2.811 9.708 3.039 3.04 8.544-1.646 9.964-3.065.739-.74 7.573-2.646 8.942-1.278 1.184 1.185 4.515 6.557 7.92 4.854 4.573-2.286 11.551-8.632 16.606-3.576 1.947 1.946 10.814 2.982 13.03.766.508-.508 5.876.184 5.876.256M182.822 175.159c1.241-1.241 1.22-2.271 2.299-2.811 4.746-2.373 7.471 2.811 10.731 2.811 2.454 0 4.037-.511 6.387-.511h2.299" stroke-width="3" stroke-linecap="round" stroke-opacity=".58" fill="none" stroke="url(#prefix__g)"/><rect x="41.567" y="86.594" width="81.5" height="119.865" rx="8.176" ry="8.176" filter="url(#prefix__Q)" fill="#654a39"/><path fill="#a43131" d="M100.168 86.594h7.184v22.752h-7.184z"/><path d="M58.78 138.726c.892 3.571 5.98 2.811 9.708 2.811 8.912 0 18.552-.256 27.848-.256 2.393 0 8.375-.823 9.709.511.327.328 2.044-.09 2.044.511M71.043 152.267c7.315 0 15-.511 21.972-.511" stroke="#000" fill="none" stroke-opacity=".18" stroke-width="3"/></svg>