<svg viewBox="0 0 300 300" xmlns="http://www.w3.org/2000/svg" xmlns:xlink="http://www.w3.org/1999/xlink"><defs><linearGradient id="prefix__b"><stop stop-color="#1f1f1f"/></linearGradient><linearGradient id="prefix__d" gradientUnits="userSpaceOnUse" x1="76.154" y1="53.205" x2="76.154" y2="162.051" gradientTransform="matrix(.83103 .55622 -.69965 1 88.17 -42.358)" xlink:href="#prefix__a"/><linearGradient id="prefix__a"><stop offset="0" stop-color="#464646"/><stop offset="1"/></linearGradient><linearGradient id="prefix__f" gradientUnits="userSpaceOnUse" x1="76.154" y1="53.205" x2="76.154" y2="162.051" gradientTransform="matrix(.81085 .58525 -.69965 1 89.706 -44.57)" xlink:href="#prefix__a"/><linearGradient id="prefix__g"><stop stop-color="#42a5f5"/></linearGradient><linearGradient id="prefix__i" gradientUnits="userSpaceOnUse" x1="76.154" y1="53.205" x2="76.154" y2="162.051" gradientTransform="matrix(.83103 .55622 -.69965 1 88.17 -42.358)" xlink:href="#prefix__a"/><linearGradient id="prefix__k" gradientUnits="userSpaceOnUse" x1="76.154" y1="53.205" x2="76.154" y2="162.051" gradientTransform="matrix(.81085 .58525 -.69965 1 89.706 -44.57)" xlink:href="#prefix__a"/><linearGradient id="prefix__l"><stop stop-color="#7e57c2"/></linearGradient><linearGradient id="prefix__m" gradientUnits="userSpaceOnUse" x1="76.154" y1="53.205" x2="76.154" y2="162.051" gradientTransform="matrix(.83103 .55622 -.69965 1 88.17 -42.358)" xlink:href="#prefix__a"/><linearGradient id="prefix__o" gradientUnits="userSpaceOnUse" x1="76.154" y1="53.205" x2="76.154" y2="162.051" gradientTransform="matrix(.81085 .58525 -.69965 1 89.706 -44.57)" xlink:href="#prefix__a"/><linearGradient id="prefix__p"><stop stop-color="#ff9800"/></linearGradient><linearGradient id="prefix__q" gradientUnits="userSpaceOnUse" x1="76.154" y1="53.205" x2="76.154" y2="162.051" gradientTransform="matrix(.83103 .55622 -.69965 1 88.17 -42.358)" xlink:href="#prefix__a"/><linearGradient id="prefix__s" gradientUnits="userSpaceOnUse" x1="76.154" y1="53.205" x2="76.154" y2="162.051" gradientTransform="matrix(.81085 .58525 -.69965 1 89.706 -44.57)" xlink:href="#prefix__a"/><linearGradient id="prefix__t" gradientUnits="userSpaceOnUse" x1="76.154" y1="53.205" x2="76.154" y2="162.051" gradientTransform="matrix(.83103 .55622 -.69965 1 88.17 -42.358)" xlink:href="#prefix__a"/><linearGradient id="prefix__v" gradientUnits="userSpaceOnUse" x1="76.154" y1="53.205" x2="76.154" y2="162.051" gradientTransform="matrix(.81085 .58525 -.69965 1 89.706 -44.57)" xlink:href="#prefix__a"/><linearGradient id="prefix__w" gradientUnits="userSpaceOnUse" x1="76.154" y1="53.205" x2="76.154" y2="162.051" gradientTransform="matrix(.83103 .55622 -.69965 1 88.17 -42.358)" xlink:href="#prefix__a"/><linearGradient id="prefix__y" gradientUnits="userSpaceOnUse" x1="76.154" y1="53.205" x2="76.154" y2="162.051" gradientTransform="matrix(.81085 .58525 -.69965 1 89.706 -44.57)" xlink:href="#prefix__a"/><linearGradient id="prefix__z" gradientUnits="userSpaceOnUse" x1="76.154" y1="53.205" x2="76.154" y2="162.051" gradientTransform="matrix(.83103 .55622 -.69965 1 88.17 -42.358)" xlink:href="#prefix__a"/><linearGradient id="prefix__B" gradientUnits="userSpaceOnUse" x1="76.154" y1="53.205" x2="76.154" y2="162.051" gradientTransform="matrix(.81085 .58525 -.69965 1 89.706 -44.57)" xlink:href="#prefix__a"/><linearGradient id="prefix__C"><stop stop-color="#57c26b"/></linearGradient><filter id="prefix__c" x="-500%" y="-500%" width="1000%" height="1000%"><feGaussianBlur in="SourceAlpha" stdDeviation="6"/><feOffset dy="8"/><feComponentTransfer result="offsetblur"><feFuncA type="linear"/></feComponentTransfer><feFlood flood-color="rgba(0,0,0,0.3)"/><feComposite in2="offsetblur" operator="in"/><feMerge><feMergeNode/><feMergeNode in="SourceGraphic"/></feMerge></filter><filter id="prefix__e" x="-500%" y="-500%" width="1000%" height="1000%"><feGaussianBlur in="SourceAlpha" stdDeviation="6"/><feOffset dy="8"/><feComponentTransfer result="offsetblur"><feFuncA type="linear"/></feComponentTransfer><feFlood flood-color="rgba(0,0,0,0.3)"/><feComposite in2="offsetblur" operator="in"/><feMerge><feMergeNode/><feMergeNode in="SourceGraphic"/></feMerge></filter><filter id="prefix__h" x="-500%" y="-500%" width="1000%" height="1000%"><feGaussianBlur in="SourceAlpha" stdDeviation="6"/><feOffset dy="8"/><feComponentTransfer result="offsetblur"><feFuncA type="linear"/></feComponentTransfer><feFlood flood-color="rgba(0,0,0,0.3)"/><feComposite in2="offsetblur" operator="in"/><feMerge><feMergeNode/><feMergeNode in="SourceGraphic"/></feMerge></filter><filter id="prefix__j" x="-500%" y="-500%" width="1000%" height="1000%"><feGaussianBlur in="SourceAlpha" stdDeviation="6"/><feOffset dy="8"/><feComponentTransfer result="offsetblur"><feFuncA type="linear"/></feComponentTransfer><feFlood flood-color="rgba(0,0,0,0.3)"/><feComposite in2="offsetblur" operator="in"/><feMerge><feMergeNode/><feMergeNode in="SourceGraphic"/></feMerge></filter><filter id="prefix__n" x="-500%" y="-500%" width="1000%" height="1000%"><feGaussianBlur in="SourceAlpha" stdDeviation="6"/><feOffset dy="8"/><feComponentTransfer result="offsetblur"><feFuncA type="linear"/></feComponentTransfer><feFlood flood-color="rgba(0,0,0,0.3)"/><feComposite in2="offsetblur" operator="in"/><feMerge><feMergeNode/><feMergeNode in="SourceGraphic"/></feMerge></filter><filter id="prefix__r" x="-500%" y="-500%" width="1000%" height="1000%"><feGaussianBlur in="SourceAlpha" stdDeviation="6"/><feOffset dy="8"/><feComponentTransfer result="offsetblur"><feFuncA type="linear"/></feComponentTransfer><feFlood flood-color="rgba(0,0,0,0.3)"/><feComposite in2="offsetblur" operator="in"/><feMerge><feMergeNode/><feMergeNode in="SourceGraphic"/></feMerge></filter><filter id="prefix__u" x="-500%" y="-500%" width="1000%" height="1000%"><feGaussianBlur in="SourceAlpha" stdDeviation="6"/><feOffset dy="8"/><feComponentTransfer result="offsetblur"><feFuncA type="linear"/></feComponentTransfer><feFlood flood-color="rgba(0,0,0,0.3)"/><feComposite in2="offsetblur" operator="in"/><feMerge><feMergeNode/><feMergeNode in="SourceGraphic"/></feMerge></filter><filter id="prefix__x" x="-500%" y="-500%" width="1000%" height="1000%"><feGaussianBlur in="SourceAlpha" stdDeviation="6"/><feOffset dy="8"/><feComponentTransfer result="offsetblur"><feFuncA type="linear"/></feComponentTransfer><feFlood flood-color="rgba(0,0,0,0.3)"/><feComposite in2="offsetblur" operator="in"/><feMerge><feMergeNode/><feMergeNode in="SourceGraphic"/></feMerge></filter><filter id="prefix__A" x="-500%" y="-500%" width="1000%" height="1000%"><feGaussianBlur in="SourceAlpha" stdDeviation="6"/><feOffset dy="8"/><feComponentTransfer result="offsetblur"><feFuncA type="linear"/></feComponentTransfer><feFlood flood-color="rgba(0,0,0,0.3)"/><feComposite in2="offsetblur" operator="in"/><feMerge><feMergeNode/><feMergeNode in="SourceGraphic"/></feMerge></filter></defs><path fill="url(#prefix__b)" d="M0 0h300v300H0z"/><g transform="translate(0 -30)"><g transform="translate(-23.31 -83.38)"><rect x="38.077" y="53.205" width="76.154" height="108.846" rx="16" ry="16" fill="url(#prefix__i)" filter="url(#prefix__j)"/><rect x="38.077" y="53.205" width="76.154" height="108.846" rx="16" ry="16" filter="none" fill="url(#prefix__k)"/></g><g transform="translate(73.462 -83.38)"><rect x="38.077" y="53.205" width="76.154" height="108.846" rx="16" ry="16" fill="url(#prefix__m)" filter="url(#prefix__n)"/><rect x="38.077" y="53.205" width="76.154" height="108.846" rx="16" ry="16" filter="none" fill="url(#prefix__o)"/></g><g transform="translate(171.642 -83.38)"><rect x="38.077" y="53.205" width="76.154" height="108.846" rx="16" ry="16" fill="url(#prefix__q)" filter="url(#prefix__r)"/><rect x="38.077" y="53.205" width="76.154" height="108.846" rx="16" ry="16" filter="none" fill="url(#prefix__s)"/></g></g><g transform="translate(0 279.409)"><g transform="translate(-23.31 -83.38)"><rect x="38.077" y="53.205" width="76.154" height="108.846" rx="16" ry="16" fill="url(#prefix__t)" filter="url(#prefix__u)"/><rect x="38.077" y="53.205" width="76.154" height="108.846" rx="16" ry="16" filter="none" fill="url(#prefix__v)"/></g><g transform="translate(73.462 -83.38)"><rect x="38.077" y="53.205" width="76.154" height="108.846" rx="16" ry="16" fill="url(#prefix__w)" filter="url(#prefix__x)"/><rect x="38.077" y="53.205" width="76.154" height="108.846" rx="16" ry="16" filter="none" fill="url(#prefix__y)"/></g><g transform="translate(171.642 -83.38)"><rect x="38.077" y="53.205" width="76.154" height="108.846" rx="16" ry="16" fill="url(#prefix__z)" filter="url(#prefix__A)"/><rect x="38.077" y="53.205" width="76.154" height="108.846" rx="16" ry="16" filter="none" fill="url(#prefix__B)"/></g></g><path d="m43.815 160.554-5.26 31.35h-6.06l4.13-23.8-7.61 2.29.95-5.3 13.06-4.51.79-.03zm19.897 8.1 5.65-.02-.49 2.64c1.873-2.087 4.143-3.103 6.81-3.05 1.433.033 2.623.363 3.57.99a4.682 4.682 0 0 1 1.91 2.56c2.046-2.42 4.453-3.603 7.22-3.55 2.133.047 3.74.78 4.82 2.2 1.08 1.413 1.533 3.46 1.36 6.14l-.04.54-2.47 14.8h-6.08l2.47-14.85c.06-.527.083-1.02.07-1.48-.107-1.5-.967-2.273-2.58-2.32-1.667 0-3.094.89-4.28 2.67l-.06.49-2.71 15.49h-6.06l2.47-14.8c.06-.533.083-1.03.07-1.49-.1-1.513-.954-2.293-2.56-2.34-1.534-.04-2.917.683-4.15 2.17l-2.9 16.46h-6.06l4.02-23.25zm46.517 8.68.45-5.11c1.507-1.507 3.277-2.26 5.31-2.26a6.825 6.825 0 0 1 2.71.5c.854.34 1.644.717 2.37 1.13.72.407 1.447.753 2.18 1.04.727.287 1.52.43 2.38.43.82 0 1.644-.197 2.47-.59.834-.393 1.8-1.1 2.9-2.12l-.51 5.11c-1.446 1.52-3.03 2.28-4.75 2.28-.886 0-1.706-.15-2.46-.45-.753-.3-1.526-.67-2.32-1.11-.793-.433-1.57-.8-2.33-1.1-.76-.3-1.6-.45-2.52-.45-1.973.027-3.933.927-5.88 2.7zm-1.57 9.03.47-5.12c1.48-1.5 3.194-2.25 5.14-2.25a6.953 6.953 0 0 1 2.58.43c.787.3 1.584.677 2.39 1.13.807.447 1.574.813 2.3 1.1.72.287 1.504.43 2.35.43 1.747 0 3.597-.903 5.55-2.71l-.5 5.12c-1.5 1.533-3.14 2.283-4.92 2.25a6.654 6.654 0 0 1-2.45-.44 20.493 20.493 0 0 1-2.31-1.09c-.793-.44-1.57-.81-2.33-1.11-.76-.3-1.596-.45-2.51-.45-1.82 0-3.74.903-5.76 2.71zm42.966-8 .78-4.85 2.9.02c1.473 0 2.706-.407 3.7-1.22 1-.82 1.576-1.917 1.73-3.29.146-1.16-.074-2.087-.66-2.78-.587-.7-1.47-1.063-2.65-1.09-1.174-.027-2.177.293-3.01.96a4.11 4.11 0 0 0-1.54 2.59l-6.06.04c.126-2.52 1.213-4.587 3.26-6.2 2.04-1.613 4.52-2.403 7.44-2.37 2.953.053 5.286.877 7 2.47 1.72 1.587 2.503 3.69 2.35 6.31-.207 2.98-2.107 5.317-5.7 7.01 1.406.673 2.436 1.63 3.09 2.87.646 1.24.926 2.617.84 4.13-.1 1.893-.68 3.557-1.74 4.99-1.06 1.433-2.477 2.53-4.25 3.29-1.774.767-3.694 1.13-5.76 1.09-2.794-.027-5.07-.863-6.83-2.51-1.76-1.647-2.627-3.817-2.6-6.51h6.02c-.034 1.16.29 2.107.97 2.84.68.74 1.63 1.123 2.85 1.15 1.406.033 2.61-.363 3.61-1.19s1.586-1.903 1.76-3.23c.186-1.433-.067-2.53-.76-3.29-.694-.76-1.75-1.16-3.17-1.2l-3.57-.03zm20.717 7.14c.96-.033 1.78.263 2.46.89.68.62 1.02 1.403 1.02 2.35.026.947-.29 1.753-.95 2.42-.66.667-1.47 1-2.43 1-.96.027-1.767-.26-2.42-.86-.66-.6-1.004-1.38-1.03-2.34-.034-.96.273-1.77.92-2.43.646-.66 1.456-1.003 2.43-1.03zm29.971 1.39-.8 5.01h-20.84l.71-4.51 11.11-10.42c2.273-2.133 3.783-3.867 4.53-5.2.747-1.333 1.027-2.637.84-3.91-.3-1.78-1.323-2.69-3.07-2.73-1.38-.027-2.53.453-3.45 1.44-.927.987-1.49 2.283-1.69 3.89l-6.06.02c.12-1.947.7-3.717 1.74-5.31 1.047-1.587 2.44-2.82 4.18-3.7 1.74-.88 3.62-1.313 5.64-1.3 2.907.053 5.17.87 6.79 2.45 1.62 1.573 2.337 3.67 2.15 6.29-.227 2.953-1.967 6.033-5.22 9.24l-3.09 2.94-6.41 5.76 12.94.04zm26.767-18.13c-.2 3.053-1.99 5.44-5.37 7.16 1.213.84 2.123 1.883 2.73 3.13.6 1.247.85 2.607.75 4.08-.16 2.813-1.3 5.063-3.42 6.75-2.12 1.693-4.74 2.51-7.86 2.45-2.853-.027-5.143-.843-6.87-2.45-1.72-1.607-2.503-3.727-2.35-6.36.2-3.467 2.243-6.087 6.13-7.86-2.107-1.68-3.09-3.863-2.95-6.55.1-1.78.623-3.357 1.57-4.73.947-1.373 2.217-2.427 3.81-3.16 1.6-.733 3.347-1.077 5.24-1.03 2.707.053 4.853.86 6.44 2.42 1.593 1.553 2.31 3.603 2.15 6.15zm-7.86 13.94c.153-1.227-.07-2.25-.67-3.07-.6-.813-1.487-1.237-2.66-1.27-1.307-.027-2.43.397-3.37 1.27-.933.873-1.493 2.02-1.68 3.44-.16 1.233.057 2.247.65 3.04.593.793 1.493 1.207 2.7 1.24 1.313.027 2.433-.39 3.36-1.25s1.483-1.993 1.67-3.4zm1.74-13.64c.127-1.173-.06-2.107-.56-2.8-.5-.693-1.247-1.057-2.24-1.09-1.127-.027-2.087.35-2.88 1.13-.787.78-1.257 1.817-1.41 3.11-.133 1.16.04 2.107.52 2.84.48.74 1.23 1.123 2.25 1.15 1.113.027 2.073-.363 2.88-1.17.8-.807 1.28-1.863 1.44-3.17zm25.757 22.84h-6.1l3.24-18.69h-3.35l.79-4.56 3.36-.02.3-2.32c.373-2.473 1.383-4.417 3.03-5.83 1.646-1.413 3.743-2.103 6.29-2.07.873.027 1.97.177 3.29.45l-.54 4.83c-.687-.173-1.28-.26-1.78-.26-1.074-.013-1.994.26-2.76.82-.767.56-1.244 1.397-1.43 2.51l-.32 1.89h4.49l-.8 4.56h-4.47l-3.24 18.69zm13.982-28.96h6.08l-1.01 5.71h3.87l-.79 4.56h-3.87l-1.98 11.64c-.087.733-.03 1.293.17 1.68s.69.593 1.47.62c.226.013.84-.023 1.84-.11l-.43 4.75c-1.074.36-2.234.527-3.48.5-1.987-.033-3.467-.657-4.44-1.87-.98-1.22-1.384-2.867-1.21-4.94l2-12.27h-3.29l.8-4.56h3.29l.98-5.71zM101.551 107.754l3.62-.01-.32 1.69c1.2-1.34 2.657-1.99 4.37-1.95.913.013 1.673.223 2.28.63a2.99 2.99 0 0 1 1.23 1.64c1.313-1.553 2.853-2.31 4.62-2.27 1.373.027 2.403.493 3.09 1.4.693.907.987 2.22.88 3.94l-.03.34-1.58 9.49h-3.9l1.58-9.51c.04-.34.057-.657.05-.95-.067-.967-.62-1.463-1.66-1.49-1.06 0-1.973.57-2.74 1.71l-.04.31-1.73 9.93h-3.89l1.59-9.49c.033-.34.047-.657.04-.95-.067-.973-.613-1.473-1.64-1.5-.98-.027-1.867.437-2.66 1.39l-1.86 10.55h-3.88l2.58-14.9zm81.795 14.9h-3.91l2.08-11.98h-2.15l.51-2.92 2.15-.01.19-1.49c.24-1.587.887-2.833 1.94-3.74 1.053-.9 2.4-1.343 4.04-1.33.56.02 1.26.117 2.1.29l-.34 3.1a4.954 4.954 0 0 0-1.15-.16c-.687-.013-1.273.16-1.76.52-.493.36-.8.897-.92 1.61l-.21 1.21h2.88l-.51 2.92h-2.86l-2.08 11.98zm8.957-18.56h3.9l-.65 3.66h2.48l-.51 2.92h-2.48l-1.27 7.46c-.053.473-.016.833.11 1.08.134.247.447.38.94.4.147.007.54-.017 1.18-.07l-.27 3.04c-.686.233-1.43.34-2.23.32-1.28-.02-2.23-.42-2.85-1.2-.626-.78-.883-1.837-.77-3.17l1.28-7.86h-2.11l.51-2.92h2.11l.63-3.66z" style="white-space:pre" fill="#57c26b"/><path fill="#57c26b" d="M98.922 129.628h97.52v4h-97.52z"/><path d="M134.1 113.011h22.387v-4.035l12.668 5.38-12.668 5.38v-4.035H134.1v-2.69z" fill="url(#prefix__C)"/></svg>