<svg viewBox="0 0 300 300" xmlns="http://www.w3.org/2000/svg" xmlns:xlink="http://www.w3.org/1999/xlink"><defs><linearGradient id="prefix__b"><stop stop-color="#1f1f1f"/></linearGradient><linearGradient id="prefix__d" gradientUnits="userSpaceOnUse" x1="76.154" y1="53.205" x2="76.154" y2="162.051" gradientTransform="matrix(.83103 .55622 -.69965 1 88.17 -42.358)" xlink:href="#prefix__a"/><linearGradient id="prefix__a"><stop offset="0" stop-color="#464646"/><stop offset="1"/></linearGradient><linearGradient id="prefix__f" gradientUnits="userSpaceOnUse" x1="76.154" y1="53.205" x2="76.154" y2="162.051" gradientTransform="matrix(.81085 .58525 -.69965 1 89.706 -44.57)" xlink:href="#prefix__a"/><linearGradient id="prefix__g"><stop stop-color="#42a5f5"/></linearGradient><linearGradient id="prefix__i" gradientUnits="userSpaceOnUse" x1="76.154" y1="53.205" x2="76.154" y2="162.051" gradientTransform="matrix(.83103 .55622 -.69965 1 88.17 -42.358)" xlink:href="#prefix__a"/><linearGradient id="prefix__k" gradientUnits="userSpaceOnUse" x1="76.154" y1="53.205" x2="76.154" y2="162.051" gradientTransform="matrix(.81085 .58525 -.69965 1 89.706 -44.57)" xlink:href="#prefix__a"/><linearGradient id="prefix__l"><stop stop-color="#7e57c2"/></linearGradient><linearGradient id="prefix__m" gradientUnits="userSpaceOnUse" x1="76.154" y1="53.205" x2="76.154" y2="162.051" gradientTransform="matrix(.83103 .55622 -.69965 1 88.17 -42.358)" xlink:href="#prefix__a"/><linearGradient id="prefix__o" gradientUnits="userSpaceOnUse" x1="76.154" y1="53.205" x2="76.154" y2="162.051" gradientTransform="matrix(.81085 .58525 -.69965 1 89.706 -44.57)" xlink:href="#prefix__a"/><linearGradient id="prefix__p"><stop stop-color="#ff9800"/></linearGradient><linearGradient id="prefix__q" gradientUnits="userSpaceOnUse" x1="76.154" y1="53.205" x2="76.154" y2="162.051" gradientTransform="matrix(.83103 .55622 -.69965 1 88.17 -42.358)" xlink:href="#prefix__a"/><linearGradient id="prefix__s" gradientUnits="userSpaceOnUse" x1="76.154" y1="53.205" x2="76.154" y2="162.051" gradientTransform="matrix(.81085 .58525 -.69965 1 89.706 -44.57)" xlink:href="#prefix__a"/><linearGradient id="prefix__t" gradientUnits="userSpaceOnUse" x1="76.154" y1="53.205" x2="76.154" y2="162.051" gradientTransform="matrix(.83103 .55622 -.69965 1 88.17 -42.358)" xlink:href="#prefix__a"/><linearGradient id="prefix__v" gradientUnits="userSpaceOnUse" x1="76.154" y1="53.205" x2="76.154" y2="162.051" gradientTransform="matrix(.81085 .58525 -.69965 1 89.706 -44.57)" xlink:href="#prefix__a"/><linearGradient id="prefix__w" gradientUnits="userSpaceOnUse" x1="76.154" y1="53.205" x2="76.154" y2="162.051" gradientTransform="matrix(.83103 .55622 -.69965 1 88.17 -42.358)" xlink:href="#prefix__a"/><linearGradient id="prefix__y" gradientUnits="userSpaceOnUse" x1="76.154" y1="53.205" x2="76.154" y2="162.051" gradientTransform="matrix(.81085 .58525 -.69965 1 89.706 -44.57)" xlink:href="#prefix__a"/><linearGradient id="prefix__z" gradientUnits="userSpaceOnUse" x1="76.154" y1="53.205" x2="76.154" y2="162.051" gradientTransform="matrix(.83103 .55622 -.69965 1 88.17 -42.358)" xlink:href="#prefix__a"/><linearGradient id="prefix__B" gradientUnits="userSpaceOnUse" x1="76.154" y1="53.205" x2="76.154" y2="162.051" gradientTransform="matrix(.81085 .58525 -.69965 1 89.706 -44.57)" xlink:href="#prefix__a"/><linearGradient id="prefix__C" gradientUnits="userSpaceOnUse" x1="76.154" y1="53.205" x2="76.154" y2="162.051" gradientTransform="matrix(.83103 .55622 -.69965 1 88.17 -42.358)" xlink:href="#prefix__a"/><linearGradient id="prefix__E" gradientUnits="userSpaceOnUse" x1="76.154" y1="53.205" x2="76.154" y2="162.051" gradientTransform="matrix(-.83537 .54969 -.69965 -1 215.073 173.395)" xlink:href="#prefix__a"/><linearGradient id="prefix__F"><stop stop-color="#78909c"/></linearGradient><linearGradient id="prefix__G" gradientUnits="userSpaceOnUse" x1="76.154" y1="53.205" x2="76.154" y2="162.051" gradientTransform="matrix(.83103 .55622 -.69965 1 88.17 -42.358)" xlink:href="#prefix__a"/><linearGradient id="prefix__I" gradientUnits="userSpaceOnUse" x1="76.154" y1="53.205" x2="76.154" y2="162.051" gradientTransform="matrix(-.83537 .54969 -.69965 -1 215.073 173.395)" xlink:href="#prefix__a"/><linearGradient id="prefix__J" gradientUnits="userSpaceOnUse" x1="76.154" y1="53.205" x2="76.154" y2="162.051" gradientTransform="matrix(.83103 .55622 -.69965 1 88.17 -42.358)" xlink:href="#prefix__a"/><linearGradient id="prefix__L" gradientUnits="userSpaceOnUse" x1="76.154" y1="53.205" x2="76.154" y2="162.051" gradientTransform="matrix(-.83537 .54969 -.69965 -1 215.073 173.395)" xlink:href="#prefix__a"/><linearGradient id="prefix__M" gradientUnits="userSpaceOnUse" x1="76.154" y1="53.205" x2="76.154" y2="162.051" gradientTransform="matrix(.83103 .55622 -.69965 1 88.17 -42.358)" xlink:href="#prefix__a"/><linearGradient id="prefix__O" gradientUnits="userSpaceOnUse" x1="76.154" y1="53.205" x2="76.154" y2="162.051" gradientTransform="matrix(-.83537 .54969 -.69965 -1 215.073 173.395)" xlink:href="#prefix__a"/><filter id="prefix__c" x="-500%" y="-500%" width="1000%" height="1000%"><feGaussianBlur in="SourceAlpha" stdDeviation="6"/><feOffset dy="8"/><feComponentTransfer result="offsetblur"><feFuncA type="linear"/></feComponentTransfer><feFlood flood-color="rgba(0,0,0,0.3)"/><feComposite in2="offsetblur" operator="in"/><feMerge><feMergeNode/><feMergeNode in="SourceGraphic"/></feMerge></filter><filter id="prefix__e" x="-500%" y="-500%" width="1000%" height="1000%"><feGaussianBlur in="SourceAlpha" stdDeviation="6"/><feOffset dy="8"/><feComponentTransfer result="offsetblur"><feFuncA type="linear"/></feComponentTransfer><feFlood flood-color="rgba(0,0,0,0.3)"/><feComposite in2="offsetblur" operator="in"/><feMerge><feMergeNode/><feMergeNode in="SourceGraphic"/></feMerge></filter><filter id="prefix__h" x="-500%" y="-500%" width="1000%" height="1000%"><feGaussianBlur in="SourceAlpha" stdDeviation="6"/><feOffset dy="8"/><feComponentTransfer result="offsetblur"><feFuncA type="linear"/></feComponentTransfer><feFlood flood-color="rgba(0,0,0,0.3)"/><feComposite in2="offsetblur" operator="in"/><feMerge><feMergeNode/><feMergeNode in="SourceGraphic"/></feMerge></filter><filter id="prefix__j" x="-500%" y="-500%" width="1000%" height="1000%"><feGaussianBlur in="SourceAlpha" stdDeviation="6"/><feOffset dy="8"/><feComponentTransfer result="offsetblur"><feFuncA type="linear"/></feComponentTransfer><feFlood flood-color="rgba(0,0,0,0.3)"/><feComposite in2="offsetblur" operator="in"/><feMerge><feMergeNode/><feMergeNode in="SourceGraphic"/></feMerge></filter><filter id="prefix__n" x="-500%" y="-500%" width="1000%" height="1000%"><feGaussianBlur in="SourceAlpha" stdDeviation="6"/><feOffset dy="8"/><feComponentTransfer result="offsetblur"><feFuncA type="linear"/></feComponentTransfer><feFlood flood-color="rgba(0,0,0,0.3)"/><feComposite in2="offsetblur" operator="in"/><feMerge><feMergeNode/><feMergeNode in="SourceGraphic"/></feMerge></filter><filter id="prefix__r" x="-500%" y="-500%" width="1000%" height="1000%"><feGaussianBlur in="SourceAlpha" stdDeviation="6"/><feOffset dy="8"/><feComponentTransfer result="offsetblur"><feFuncA type="linear"/></feComponentTransfer><feFlood flood-color="rgba(0,0,0,0.3)"/><feComposite in2="offsetblur" operator="in"/><feMerge><feMergeNode/><feMergeNode in="SourceGraphic"/></feMerge></filter><filter id="prefix__u" x="-500%" y="-500%" width="1000%" height="1000%"><feGaussianBlur in="SourceAlpha" stdDeviation="6"/><feOffset dy="8"/><feComponentTransfer result="offsetblur"><feFuncA type="linear"/></feComponentTransfer><feFlood flood-color="rgba(0,0,0,0.3)"/><feComposite in2="offsetblur" operator="in"/><feMerge><feMergeNode/><feMergeNode in="SourceGraphic"/></feMerge></filter><filter id="prefix__x" x="-500%" y="-500%" width="1000%" height="1000%"><feGaussianBlur in="SourceAlpha" stdDeviation="6"/><feOffset dy="8"/><feComponentTransfer result="offsetblur"><feFuncA type="linear"/></feComponentTransfer><feFlood flood-color="rgba(0,0,0,0.3)"/><feComposite in2="offsetblur" operator="in"/><feMerge><feMergeNode/><feMergeNode in="SourceGraphic"/></feMerge></filter><filter id="prefix__A" x="-500%" y="-500%" width="1000%" height="1000%"><feGaussianBlur in="SourceAlpha" stdDeviation="6"/><feOffset dy="8"/><feComponentTransfer result="offsetblur"><feFuncA type="linear"/></feComponentTransfer><feFlood flood-color="rgba(0,0,0,0.3)"/><feComposite in2="offsetblur" operator="in"/><feMerge><feMergeNode/><feMergeNode in="SourceGraphic"/></feMerge></filter><filter id="prefix__D" x="-500%" y="-500%" width="1000%" height="1000%"><feGaussianBlur in="SourceAlpha" stdDeviation="6"/><feOffset dy="8"/><feComponentTransfer result="offsetblur"><feFuncA type="linear"/></feComponentTransfer><feFlood flood-color="rgba(0,0,0,0.3)"/><feComposite in2="offsetblur" operator="in"/><feMerge><feMergeNode/><feMergeNode in="SourceGraphic"/></feMerge></filter><filter id="prefix__H" x="-500%" y="-500%" width="1000%" height="1000%"><feGaussianBlur in="SourceAlpha" stdDeviation="6"/><feOffset dy="8"/><feComponentTransfer result="offsetblur"><feFuncA type="linear"/></feComponentTransfer><feFlood flood-color="rgba(0,0,0,0.3)"/><feComposite in2="offsetblur" operator="in"/><feMerge><feMergeNode/><feMergeNode in="SourceGraphic"/></feMerge></filter><filter id="prefix__K" x="-500%" y="-500%" width="1000%" height="1000%"><feGaussianBlur in="SourceAlpha" stdDeviation="6"/><feOffset dy="8"/><feComponentTransfer result="offsetblur"><feFuncA type="linear"/></feComponentTransfer><feFlood flood-color="rgba(0,0,0,0.3)"/><feComposite in2="offsetblur" operator="in"/><feMerge><feMergeNode/><feMergeNode in="SourceGraphic"/></feMerge></filter><filter id="prefix__N" x="-500%" y="-500%" width="1000%" height="1000%"><feGaussianBlur in="SourceAlpha" stdDeviation="6"/><feOffset dy="8"/><feComponentTransfer result="offsetblur"><feFuncA type="linear"/></feComponentTransfer><feFlood flood-color="rgba(0,0,0,0.3)"/><feComposite in2="offsetblur" operator="in"/><feMerge><feMergeNode/><feMergeNode in="SourceGraphic"/></feMerge></filter></defs><path fill="url(#prefix__b)" d="M0 0h300v300H0z"/><g transform="translate(0 -30)"><g transform="translate(-23.31 -83.38)"><rect x="38.077" y="53.205" width="76.154" height="108.846" rx="16" ry="16" fill="url(#prefix__i)" filter="url(#prefix__j)"/><rect x="38.077" y="53.205" width="76.154" height="108.846" rx="16" ry="16" filter="none" fill="url(#prefix__k)"/></g><g transform="translate(73.462 -83.38)"><rect x="38.077" y="53.205" width="76.154" height="108.846" rx="16" ry="16" fill="url(#prefix__m)" filter="url(#prefix__n)"/><rect x="38.077" y="53.205" width="76.154" height="108.846" rx="16" ry="16" filter="none" fill="url(#prefix__o)"/></g><g transform="translate(171.642 -83.38)"><rect x="38.077" y="53.205" width="76.154" height="108.846" rx="16" ry="16" fill="url(#prefix__q)" filter="url(#prefix__r)"/><rect x="38.077" y="53.205" width="76.154" height="108.846" rx="16" ry="16" filter="none" fill="url(#prefix__s)"/></g></g><g transform="translate(0 279.409)"><g transform="translate(-23.31 -83.38)"><rect x="38.077" y="53.205" width="76.154" height="108.846" rx="16" ry="16" fill="url(#prefix__t)" filter="url(#prefix__u)"/><rect x="38.077" y="53.205" width="76.154" height="108.846" rx="16" ry="16" filter="none" fill="url(#prefix__v)"/></g><g transform="translate(73.462 -83.38)"><rect x="38.077" y="53.205" width="76.154" height="108.846" rx="16" ry="16" fill="url(#prefix__w)" filter="url(#prefix__x)"/><rect x="38.077" y="53.205" width="76.154" height="108.846" rx="16" ry="16" filter="none" fill="url(#prefix__y)"/></g><g transform="translate(171.642 -83.38)"><rect x="38.077" y="53.205" width="76.154" height="108.846" rx="16" ry="16" fill="url(#prefix__z)" filter="url(#prefix__A)"/><rect x="38.077" y="53.205" width="76.154" height="108.846" rx="16" ry="16" filter="none" fill="url(#prefix__B)"/></g></g><circle cx="149.929" cy="149.697" r="3.448" stroke-width="8" stroke="url(#prefix__g)" fill="url(#prefix__g)"/><circle cx="149.785" cy="149.795" r="53.371" fill="none" stroke-width="4" stroke-opacity=".36" stroke="url(#prefix__g)"/><circle cx="149.7" cy="150" r="32.534" fill="none" stroke-width="4" stroke="url(#prefix__g)" stroke-opacity=".53"/><circle cx="96.111" cy="149.578" r="6" fill="none" stroke="#fff" stroke-dasharray="2"/><circle cx="149.377" cy="118.274" r="6" fill="none" stroke="#fff" stroke-dasharray="2"/><circle cx="149.377" cy="181.726" r="6" fill="none" stroke="#fff" stroke-dasharray="2"/><circle cx="202.955" cy="149.578" r="6" fill="none" stroke="#fff" stroke-dasharray="2"/><g transform="matrix(0 -.51992 .51992 0 192.403 146.11)"><rect x="38.077" y="53.205" width="76.154" height="108.846" rx="16" ry="16" fill="url(#prefix__C)" filter="url(#prefix__D)"/><rect x="38.077" y="53.205" width="76.154" height="108.846" rx="16" ry="16" filter="none" fill="url(#prefix__E)"/><path d="M19.678 100.707v4.41h4.07v2.94h-4.07v4.6h-3.1v-4.6h-4.09v-2.94h4.09v-4.41h3.1zm13.799-2.85v16.45h-3.25v-12.57l-3.9 1.21v-2.65l6.81-2.44h.34zm18.28.03-6.04 17.83h-2.43l6.05-17.83h2.42zm13.639 8.07v2.63h-6.35v-2.63h6.35zm10.388-8.1v16.45h-3.25v-12.57l-3.9 1.21v-2.65l6.81-2.44h.34z" transform="rotate(90 60.741 121.065)" style="text-transform:capitalize;white-space:pre" fill="url(#prefix__F)"/></g><g transform="matrix(0 -.51992 .51992 0 192.403 232.393)"><rect x="38.077" y="53.205" width="76.154" height="108.846" rx="16" ry="16" fill="url(#prefix__G)" filter="url(#prefix__H)"/><rect x="38.077" y="53.205" width="76.154" height="108.846" rx="16" ry="16" filter="none" fill="url(#prefix__I)"/><path d="M42.417 105.957v2.63h-6.35v-2.63h6.35zm13.728 5.72v2.63h-11.25v-2.23l5.31-5.67c.727-.793 1.267-1.487 1.62-2.08.347-.593.52-1.157.52-1.69 0-.733-.183-1.307-.55-1.72-.367-.42-.893-.63-1.58-.63-.733 0-1.313.253-1.74.76-.427.507-.64 1.173-.64 2h-3.27c0-1 .24-1.913.72-2.74a4.972 4.972 0 0 1 2.02-1.94c.873-.473 1.863-.71 2.97-.71 1.687 0 3 .407 3.94 1.22.933.813 1.4 1.96 1.4 3.44 0 .813-.21 1.64-.63 2.48-.42.84-1.14 1.823-2.16 2.95l-3.74 3.93h7.06z" transform="rotate(90 60.741 121.065)" style="text-transform:capitalize;white-space:pre" fill="url(#prefix__F)"/></g><g transform="matrix(0 -.51992 .51992 0 -4.6 232.393)"><rect x="38.077" y="53.205" width="76.154" height="108.846" rx="16" ry="16" fill="url(#prefix__J)" filter="url(#prefix__K)"/><rect x="38.077" y="53.205" width="76.154" height="108.846" rx="16" ry="16" filter="none" fill="url(#prefix__L)"/><path d="M51.471 104.497v3.02c0 2.273-.47 4.01-1.41 5.21-.94 1.207-2.317 1.81-4.13 1.81-1.787 0-3.153-.593-4.1-1.78-.947-1.18-1.433-2.87-1.46-5.07v-3.02c0-2.293.477-4.037 1.43-5.23.953-1.187 2.323-1.78 4.11-1.78 1.787 0 3.157.59 4.11 1.77.947 1.173 1.43 2.863 1.45 5.07zm-3.26 3.61v-3.91c0-1.36-.187-2.35-.56-2.97-.373-.62-.953-.93-1.74-.93-.767 0-1.333.297-1.7.89-.36.587-.553 1.51-.58 2.77v3.99c0 1.34.183 2.333.55 2.98.367.653.95.98 1.75.98s1.377-.313 1.73-.94c.353-.62.537-1.573.55-2.86z" transform="rotate(90 60.741 121.065)" style="text-transform:capitalize;white-space:pre" fill="url(#prefix__F)"/></g><g transform="matrix(0 -.51992 .51992 0 -4.6 146.11)"><rect x="38.077" y="53.205" width="76.154" height="108.846" rx="16" ry="16" fill="url(#prefix__M)" filter="url(#prefix__N)"/><rect x="38.077" y="53.205" width="76.154" height="108.846" rx="16" ry="16" filter="none" fill="url(#prefix__O)"/><path d="M40.831 100.707v4.41h4.07v2.94h-4.07v4.6h-3.1v-4.6h-4.09v-2.94h4.09v-4.41h3.1zm13.8-2.85v16.45h-3.25v-12.57l-3.9 1.21v-2.65l6.81-2.44h.34z" transform="rotate(90 60.741 121.065)" style="text-transform:capitalize;white-space:pre" fill="url(#prefix__F)"/></g></svg>