<svg xmlns="http://www.w3.org/2000/svg" width="24" height="24">
  <path d="M13 14c-3.4 0-4.5 1.3-4.8 2.2A3 3 0 0 1 10 19a3 3 0 0 1-3 3 3 3 0 0 1-3-3 3 3 0 0 1 2-2.8V7.8A3 3 0 0 1 4 5a3 3 0 0 1 3-3 3 3 0 0 1 3 3 3 3 0 0 1-2 2.8v5.3c.9-.6 2.2-1.1 4-1.1 2.7 0 3.6-1.3 3.8-2.2A3 3 0 0 1 14 7a3 3 0 0 1 3-3 3 3 0 0 1 3 3 3 3 0 0 1-2 2.9c-.4 1.4-1.3 4.1-5 4.1m-6 4a1 1 0 0 0-1 1 1 1 0 0 0 1 1 1 1 0 0 0 1-1 1 1 0 0 0-1-1M7 4a1 1 0 0 0-1 1 1 1 0 0 0 1 1 1 1 0 0 0 1-1 1 1 0 0 0-1-1m10 2a1 1 0 0 0-1 1 1 1 0 0 0 1 1 1 1 0 0 0 1-1 1 1 0 0 0-1-1z"/>
</svg>